<svg id="svg" version="1.1" xmlns="http://www.w3.org/2000/svg" xmlns:xlink="http://www.w3.org/1999/xlink" width="400" height="179.94987468671678" viewBox="0, 0, 400,179.94987468671678"><g id="svgg"><path id="path0" d="M179.658 8.252 C 179.658 8.335,178.969 8.505,178.128 8.631 C 177.286 8.756,176.598 8.921,176.598 8.999 C 176.598 9.076,176.132 9.197,175.563 9.268 C 174.993 9.338,174.446 9.459,174.347 9.536 C 174.189 9.659,172.208 10.084,171.602 10.126 C 171.478 10.134,171.377 10.209,171.377 10.291 C 171.377 10.374,171.261 10.441,171.120 10.441 C 170.356 10.441,170.253 10.909,170.386 13.758 C 170.456 15.251,170.586 16.549,170.675 16.643 C 170.764 16.737,170.837 17.387,170.837 18.088 C 170.837 19.664,171.109 19.982,172.459 19.982 C 172.953 19.982,173.357 19.911,173.357 19.824 C 173.357 19.737,174.005 19.565,174.797 19.442 C 175.590 19.319,176.238 19.158,176.238 19.085 C 176.238 19.011,176.698 18.897,177.261 18.831 C 177.824 18.765,178.370 18.645,178.476 18.565 C 178.582 18.485,179.273 18.315,180.013 18.187 C 181.439 17.941,181.998 17.699,181.998 17.328 C 181.998 17.204,182.079 17.102,182.178 17.102 C 182.277 17.102,182.358 16.778,182.358 16.382 C 182.358 15.986,182.288 15.662,182.203 15.662 C 182.117 15.662,181.944 14.244,181.818 12.511 C 181.692 10.779,181.519 9.361,181.434 9.361 C 181.348 9.361,181.278 9.217,181.278 9.041 C 181.278 8.865,181.115 8.581,180.916 8.411 C 180.545 8.093,179.658 7.981,179.658 8.252 M164.820 23.560 C 164.767 23.646,164.053 23.819,163.235 23.944 C 162.416 24.068,161.663 24.235,161.562 24.315 C 161.460 24.394,160.954 24.515,160.437 24.584 C 159.919 24.653,159.496 24.772,159.496 24.850 C 159.496 24.927,158.767 25.090,157.876 25.212 C 156.985 25.334,156.256 25.497,156.256 25.575 C 156.256 25.653,155.810 25.772,155.266 25.840 C 154.721 25.908,154.275 26.020,154.275 26.089 C 154.275 26.158,153.546 26.317,152.655 26.443 C 151.764 26.569,151.035 26.740,151.035 26.823 C 151.035 26.906,150.509 27.030,149.865 27.099 C 149.221 27.168,148.695 27.286,148.695 27.362 C 148.695 27.437,148.047 27.600,147.255 27.723 C 146.463 27.846,145.815 28.002,145.815 28.070 C 145.815 28.138,145.086 28.297,144.194 28.423 C 143.303 28.549,142.574 28.717,142.574 28.797 C 142.574 28.876,142.048 28.997,141.404 29.066 C 140.761 29.135,140.234 29.252,140.234 29.325 C 140.234 29.398,139.566 29.564,138.749 29.694 C 137.932 29.824,137.183 29.992,137.084 30.067 C 136.985 30.141,136.478 30.260,135.959 30.330 C 135.439 30.400,135.014 30.530,135.014 30.620 C 135.014 30.710,134.770 30.783,134.473 30.783 C 133.963 30.783,133.933 30.823,133.933 31.503 C 133.933 31.899,134.001 32.223,134.084 32.223 C 134.167 32.223,134.340 34.127,134.470 36.454 C 134.599 38.780,134.764 40.684,134.836 40.684 C 134.908 40.684,135.026 41.980,135.098 43.564 C 135.170 45.149,135.288 46.445,135.360 46.445 C 135.433 46.445,135.601 48.429,135.734 50.855 C 135.866 53.281,136.042 55.266,136.124 55.266 C 136.206 55.266,136.274 55.437,136.274 55.647 C 136.274 56.041,138.548 56.017,138.797 55.620 C 138.848 55.538,139.597 55.372,140.462 55.251 C 141.327 55.130,142.034 54.977,142.034 54.910 C 142.034 54.844,142.804 54.684,143.744 54.555 C 144.685 54.426,145.455 54.259,145.455 54.184 C 145.455 54.109,145.981 53.991,146.625 53.922 C 147.268 53.853,147.795 53.736,147.795 53.663 C 147.795 53.589,148.564 53.419,149.505 53.285 C 150.446 53.152,151.215 52.982,151.215 52.908 C 151.215 52.834,151.742 52.718,152.385 52.649 C 153.029 52.580,153.555 52.461,153.555 52.385 C 153.555 52.309,154.224 52.149,155.041 52.030 C 155.857 51.911,156.607 51.748,156.706 51.669 C 156.805 51.590,157.392 51.468,158.011 51.397 C 158.630 51.327,159.177 51.204,159.227 51.123 C 159.277 51.042,160.046 50.877,160.937 50.755 C 161.828 50.634,162.556 50.475,162.556 50.403 C 162.556 50.331,163.042 50.217,163.636 50.149 C 164.230 50.082,164.716 49.963,164.716 49.885 C 164.716 49.807,165.527 49.636,166.517 49.505 C 167.507 49.374,168.317 49.199,168.317 49.116 C 168.317 49.033,168.489 48.965,168.700 48.965 C 169.096 48.965,169.075 45.073,168.677 44.824 C 168.598 44.775,168.474 43.823,168.402 42.709 C 168.329 41.595,168.212 40.684,168.141 40.684 C 168.070 40.684,167.906 39.347,167.777 37.714 C 167.647 36.080,167.485 34.743,167.417 34.743 C 167.348 34.743,167.186 33.407,167.057 31.773 C 166.927 30.140,166.761 28.803,166.687 28.803 C 166.613 28.803,166.494 27.871,166.423 26.733 C 166.352 25.594,166.222 24.662,166.135 24.662 C 166.048 24.662,165.977 24.379,165.977 24.032 C 165.977 23.408,165.128 23.061,164.820 23.560 M49.685 41.185 C 41.366 43.676,29.258 52.369,23.303 60.127 C 10.995 76.160,10.817 94.749,22.806 111.791 C 26.409 116.913,33.634 123.118,40.684 127.144 C 41.423 127.567,45.173 129.443,46.085 129.848 C 48.061 130.724,48.416 130.873,48.523 130.873 C 48.587 130.873,48.919 131.005,49.259 131.167 C 49.599 131.328,49.916 131.423,49.962 131.376 C 50.222 131.116,49.946 41.107,49.685 41.185 M189.604 46.931 C 189.282 46.973,189.019 47.073,189.019 47.153 C 189.019 47.234,188.249 47.405,187.309 47.534 C 186.368 47.663,185.599 47.826,185.599 47.896 C 185.599 47.966,185.153 48.079,184.608 48.147 C 184.064 48.215,183.618 48.330,183.618 48.403 C 183.618 48.476,182.869 48.641,181.953 48.769 C 181.037 48.898,180.207 49.066,180.108 49.143 C 179.971 49.250,178.366 49.587,177.138 49.767 C 177.088 49.775,176.967 49.832,176.868 49.895 C 176.769 49.958,176.283 50.069,175.788 50.140 C 175.293 50.212,174.806 50.321,174.707 50.383 C 174.608 50.445,173.879 50.617,173.087 50.765 C 171.907 50.986,171.615 51.108,171.469 51.440 C 171.372 51.663,171.230 51.845,171.154 51.845 C 171.079 51.845,171.017 52.129,171.017 52.475 C 171.017 52.822,171.085 53.105,171.168 53.105 C 171.250 53.105,171.424 55.009,171.553 57.336 C 171.683 59.662,171.849 61.566,171.922 61.566 C 171.996 61.566,172.115 62.862,172.187 64.446 C 172.259 66.031,172.390 67.327,172.478 67.327 C 172.565 67.327,172.637 67.436,172.637 67.569 C 172.637 68.025,173.279 68.407,174.047 68.407 C 174.460 68.407,174.797 68.335,174.797 68.248 C 174.797 68.160,175.324 68.032,175.968 67.963 C 176.611 67.895,177.138 67.777,177.138 67.701 C 177.138 67.626,177.847 67.461,178.713 67.334 C 179.579 67.207,180.369 67.040,180.468 66.962 C 180.567 66.885,181.115 66.764,181.686 66.693 C 182.256 66.622,182.763 66.500,182.812 66.421 C 182.860 66.342,183.629 66.178,184.519 66.057 C 185.410 65.935,186.139 65.776,186.139 65.704 C 186.139 65.632,186.625 65.518,187.219 65.451 C 187.813 65.384,188.299 65.265,188.299 65.187 C 188.299 65.109,189.109 64.938,190.099 64.806 C 191.089 64.675,191.899 64.504,191.899 64.426 C 191.899 64.348,192.385 64.229,192.979 64.162 C 193.573 64.095,194.059 63.969,194.059 63.883 C 194.059 63.797,194.175 63.726,194.317 63.726 C 194.459 63.726,194.627 63.562,194.691 63.361 C 194.835 62.908,194.405 57.606,194.225 57.606 C 194.153 57.606,194.036 56.755,193.965 55.716 C 193.894 54.676,193.778 53.825,193.707 53.825 C 193.636 53.825,193.471 52.529,193.339 50.945 C 193.208 49.361,193.038 48.065,192.961 48.065 C 192.885 48.065,192.797 47.802,192.766 47.480 L 192.709 46.895 191.449 46.875 C 190.756 46.864,189.926 46.890,189.604 46.931 " stroke="none" fill="#f18419" fill-rule="evenodd"></path><path id="path1" d="M156.018 0.279 C 155.243 0.423,154.474 0.613,154.308 0.700 C 154.141 0.787,153.580 0.916,153.060 0.986 C 152.541 1.056,152.115 1.178,152.115 1.256 C 152.115 1.335,151.649 1.456,151.080 1.527 C 150.511 1.598,149.794 1.760,149.487 1.887 C 149.181 2.015,148.512 2.176,148.002 2.246 C 147.492 2.317,147.075 2.433,147.075 2.505 C 147.075 2.577,146.454 2.732,145.695 2.850 C 144.937 2.968,144.228 3.133,144.120 3.218 C 144.013 3.302,143.701 3.424,143.428 3.489 C 142.853 3.627,142.370 4.559,142.579 5.131 C 142.651 5.329,142.769 6.827,142.842 8.461 C 142.915 10.095,143.036 11.512,143.112 11.611 C 143.187 11.710,143.306 12.925,143.375 14.311 C 143.541 17.629,143.603 17.732,145.332 17.571 C 146.034 17.506,146.653 17.387,146.707 17.307 C 146.761 17.227,147.435 17.055,148.206 16.925 C 148.976 16.795,149.646 16.625,149.694 16.548 C 149.741 16.470,150.225 16.351,150.768 16.283 C 151.311 16.216,151.755 16.104,151.755 16.036 C 151.755 15.967,152.484 15.803,153.375 15.671 C 154.266 15.539,154.995 15.371,154.995 15.297 C 154.995 15.223,155.441 15.107,155.986 15.039 C 156.530 14.971,156.976 14.856,156.976 14.784 C 156.976 14.711,157.604 14.547,158.371 14.419 C 159.875 14.168,160.216 13.997,160.216 13.494 C 160.216 13.317,160.317 13.137,160.441 13.096 C 160.617 13.037,160.620 12.926,160.452 12.586 C 160.335 12.347,160.148 10.949,160.037 9.480 C 159.926 8.011,159.766 6.629,159.683 6.409 C 159.599 6.189,159.472 5.102,159.400 3.994 C 159.328 2.887,159.199 1.980,159.113 1.980 C 159.026 1.980,158.955 1.676,158.953 1.305 C 158.948 0.040,158.374 -0.160,156.018 0.279 M71.017 36.364 C 64.744 36.906,58.421 38.197,52.745 40.094 L 50.135 40.966 50.090 86.251 L 50.044 131.536 51.980 132.187 C 67.473 137.396,85.736 137.750,99.910 133.116 C 100.929 132.783,101.317 132.795,102.880 133.204 C 103.573 133.386,104.201 133.498,104.275 133.453 C 104.350 133.409,104.410 112.567,104.410 87.139 L 104.410 40.906 103.116 40.426 C 98.875 38.854,92.672 37.440,86.859 36.720 C 83.407 36.293,74.225 36.086,71.017 36.364 M25.743 115.448 C 25.743 115.479,26.006 115.742,26.328 116.033 L 26.913 116.562 26.384 115.977 C 25.891 115.431,25.743 115.309,25.743 115.448 " stroke="none" fill="#8bbb24" fill-rule="evenodd"></path><path id="path2" d="M132.238 12.758 C 132.178 12.854,131.604 12.989,130.961 13.058 C 130.319 13.127,129.793 13.240,129.793 13.310 C 129.793 13.380,129.125 13.545,128.308 13.677 C 127.491 13.809,126.701 13.979,126.553 14.054 C 126.404 14.130,125.635 14.318,124.842 14.471 C 124.050 14.625,122.876 14.880,122.232 15.037 C 121.589 15.194,120.414 15.440,119.622 15.583 C 118.830 15.726,118.041 15.924,117.869 16.023 C 117.697 16.121,117.367 16.202,117.136 16.202 C 116.094 16.202,115.901 16.800,116.039 19.598 C 116.109 20.997,116.220 22.142,116.286 22.142 C 116.353 22.142,116.505 23.764,116.625 25.747 C 116.851 29.470,116.996 30.157,117.601 30.349 C 118.053 30.492,120.612 30.258,120.612 30.074 C 120.612 29.998,121.341 29.831,122.232 29.703 C 123.123 29.575,123.852 29.408,123.852 29.331 C 123.852 29.254,124.379 29.135,125.023 29.066 C 125.666 28.997,126.193 28.886,126.193 28.820 C 126.193 28.753,126.901 28.591,127.768 28.460 C 128.634 28.329,129.424 28.160,129.523 28.084 C 129.622 28.008,130.412 27.842,131.278 27.715 C 132.144 27.589,132.853 27.428,132.853 27.359 C 132.853 27.290,133.267 27.184,133.772 27.124 C 134.777 27.005,135.194 26.762,135.194 26.297 C 135.194 26.130,135.291 25.897,135.410 25.779 C 135.545 25.643,135.555 25.563,135.435 25.563 C 135.322 25.563,135.194 24.818,135.119 23.731 C 135.049 22.724,134.928 21.772,134.848 21.616 C 134.769 21.460,134.605 20.198,134.484 18.812 C 134.362 17.426,134.191 16.049,134.103 15.752 C 134.014 15.455,133.895 14.752,133.837 14.190 C 133.739 13.249,133.686 13.151,133.157 12.942 C 132.841 12.817,132.530 12.685,132.465 12.648 C 132.400 12.612,132.297 12.661,132.238 12.758 M104.366 87.264 L 104.320 133.483 105.221 133.716 C 105.716 133.844,106.607 134.062,107.201 134.201 C 108.651 134.541,111.274 135.167,112.601 135.490 C 113.195 135.635,114.329 135.906,115.122 136.091 C 115.914 136.277,117.250 136.600,118.092 136.808 C 118.933 137.016,119.986 137.262,120.432 137.355 C 120.878 137.448,121.526 137.605,121.872 137.704 C 122.219 137.803,123.879 138.212,125.563 138.613 C 127.246 139.013,128.947 139.425,129.343 139.529 C 129.739 139.632,130.549 139.827,131.143 139.962 C 131.737 140.096,132.578 140.296,133.012 140.406 C 134.078 140.677,134.076 140.860,133.043 137.174 C 132.835 136.431,132.551 135.419,132.413 134.923 C 132.274 134.428,131.987 133.416,131.773 132.673 C 131.257 130.876,130.952 129.779,130.549 128.263 C 130.365 127.570,130.162 126.881,130.099 126.733 C 130.035 126.584,129.905 126.139,129.809 125.743 C 129.714 125.347,129.463 124.415,129.251 123.672 C 129.038 122.930,128.754 121.917,128.619 121.422 C 128.484 120.927,128.200 119.914,127.989 119.172 C 127.778 118.429,127.562 117.641,127.508 117.420 C 127.434 117.111,127.626 116.799,128.338 116.070 C 138.489 105.678,143.249 89.268,139.709 76.868 C 139.610 76.521,139.357 75.630,139.146 74.887 C 138.772 73.571,138.268 72.136,137.777 70.990 C 137.643 70.678,137.534 70.372,137.534 70.311 C 137.534 69.869,135.277 65.691,133.783 63.366 C 130.179 57.759,123.448 51.147,117.840 47.705 C 117.275 47.358,116.400 46.808,115.894 46.481 C 114.673 45.693,111.048 43.766,109.451 43.055 C 107.185 42.048,104.722 41.044,104.515 41.044 C 104.458 41.044,104.391 61.843,104.366 87.264 " stroke="none" fill="#2c74bb" fill-rule="evenodd"></path><path id="path3" d="M70.212 25.239 C 68.284 25.328,66.664 25.468,66.612 25.550 C 66.559 25.632,65.686 25.759,64.671 25.831 C 63.657 25.903,62.826 26.034,62.826 26.122 C 62.826 26.210,62.604 26.282,62.331 26.281 C 61.418 26.278,58.326 26.712,58.326 26.844 C 58.326 26.915,57.799 27.030,57.156 27.099 C 56.512 27.168,55.986 27.285,55.986 27.359 C 55.986 27.433,55.358 27.594,54.590 27.717 C 53.823 27.839,53.114 28.005,53.015 28.084 C 52.916 28.164,52.430 28.287,51.935 28.357 C 51.440 28.427,50.792 28.590,50.495 28.720 C 50.198 28.850,49.671 29.012,49.325 29.080 C 48.978 29.149,48.614 29.267,48.515 29.344 C 48.416 29.420,47.869 29.586,47.300 29.712 C 46.730 29.837,46.265 29.999,46.265 30.072 C 46.265 30.144,45.981 30.256,45.635 30.321 C 45.288 30.386,45.005 30.504,45.005 30.583 C 45.005 30.661,44.559 30.825,44.014 30.947 C 43.470 31.069,43.024 31.235,43.024 31.316 C 43.024 31.397,42.741 31.516,42.394 31.581 C 42.048 31.646,41.764 31.762,41.764 31.837 C 41.764 31.913,41.359 32.079,40.864 32.206 C 40.369 32.333,39.964 32.501,39.964 32.580 C 39.964 32.659,39.680 32.776,39.334 32.841 C 38.987 32.906,38.704 33.024,38.704 33.103 C 38.704 33.181,38.380 33.353,37.984 33.483 C 37.588 33.614,37.264 33.783,37.264 33.858 C 37.264 33.933,37.021 34.048,36.724 34.113 C 36.427 34.179,36.184 34.294,36.184 34.369 C 36.184 34.444,35.860 34.613,35.464 34.743 C 35.068 34.874,34.743 35.043,34.743 35.118 C 34.743 35.193,34.506 35.307,34.216 35.371 C 33.926 35.435,33.596 35.598,33.483 35.734 C 33.371 35.869,33.041 36.033,32.751 36.096 C 32.461 36.160,32.223 36.286,32.223 36.376 C 32.223 36.465,31.960 36.660,31.638 36.808 C 31.059 37.074,30.417 37.449,30.243 37.624 C 30.194 37.674,29.910 37.836,29.613 37.984 C 29.316 38.132,28.974 38.335,28.854 38.434 C 28.734 38.533,28.525 38.705,28.390 38.817 C 28.255 38.929,27.965 39.077,27.745 39.147 C 27.525 39.217,27.122 39.490,26.849 39.754 C 26.577 40.018,26.116 40.356,25.825 40.504 C 25.534 40.653,25.123 40.956,24.913 41.179 C 24.703 41.402,24.444 41.584,24.337 41.584 C 24.230 41.584,24.037 41.727,23.908 41.902 C 23.778 42.077,23.450 42.318,23.177 42.438 C 22.905 42.558,22.682 42.739,22.682 42.840 C 22.682 42.942,22.580 43.024,22.456 43.024 C 22.332 43.024,21.970 43.308,21.651 43.654 C 21.333 44.001,21.008 44.284,20.928 44.284 C 20.848 44.284,20.461 44.606,20.067 44.999 C 19.674 45.391,19.292 45.715,19.219 45.719 C 18.915 45.732,12.936 51.991,12.528 52.723 C 12.438 52.884,12.135 53.225,11.853 53.481 C 11.571 53.738,11.341 54.010,11.341 54.085 C 11.341 54.213,10.771 54.982,10.199 55.626 C 10.067 55.774,9.908 56.037,9.846 56.211 C 9.783 56.384,9.649 56.526,9.547 56.526 C 9.444 56.526,9.361 56.612,9.361 56.718 C 9.361 56.823,9.158 57.175,8.911 57.500 C 8.663 57.824,8.461 58.183,8.461 58.298 C 8.461 58.412,8.397 58.506,8.320 58.506 C 8.242 58.506,7.938 58.951,7.644 59.495 C 7.351 60.040,7.066 60.485,7.012 60.485 C 6.957 60.486,6.810 60.770,6.685 61.116 C 6.560 61.463,6.388 61.746,6.303 61.746 C 6.219 61.746,6.096 61.989,6.031 62.286 C 5.965 62.583,5.850 62.826,5.775 62.826 C 5.700 62.826,5.531 63.150,5.401 63.546 C 5.270 63.942,5.101 64.266,5.026 64.266 C 4.951 64.266,4.836 64.509,4.770 64.806 C 4.705 65.104,4.593 65.347,4.520 65.347 C 4.448 65.347,4.285 65.752,4.158 66.247 C 4.031 66.742,3.863 67.147,3.784 67.147 C 3.705 67.147,3.587 67.430,3.522 67.777 C 3.457 68.123,3.338 68.407,3.257 68.407 C 3.176 68.407,3.006 68.893,2.880 69.487 C 2.754 70.081,2.588 70.567,2.511 70.567 C 2.435 70.567,2.317 70.891,2.250 71.286 C 2.184 71.682,2.066 72.044,1.989 72.092 C 1.913 72.139,1.742 72.787,1.609 73.533 C 1.477 74.278,1.313 74.887,1.245 74.887 C 1.177 74.887,1.064 75.434,0.993 76.103 C 0.923 76.771,0.802 77.399,0.726 77.498 C 0.056 78.370,-0.076 90.862,0.550 94.149 C 0.654 94.694,0.826 95.666,0.934 96.310 C 1.041 96.953,1.182 97.520,1.248 97.570 C 1.314 97.619,1.475 98.227,1.607 98.920 C 1.739 99.613,1.910 100.261,1.988 100.360 C 2.065 100.459,2.185 100.844,2.254 101.215 C 2.324 101.586,2.439 101.890,2.512 101.890 C 2.584 101.890,2.747 102.356,2.874 102.925 C 3.001 103.495,3.216 104.120,3.353 104.315 C 3.489 104.511,3.600 104.855,3.600 105.081 C 3.600 105.306,3.680 105.491,3.778 105.491 C 3.875 105.491,4.047 105.855,4.159 106.301 C 4.271 106.746,4.428 107.111,4.508 107.111 C 4.587 107.111,4.705 107.354,4.770 107.651 C 4.836 107.948,4.951 108.191,5.026 108.191 C 5.102 108.191,5.261 108.515,5.379 108.911 C 5.498 109.307,5.666 109.631,5.753 109.631 C 5.841 109.631,5.965 109.874,6.031 110.171 C 6.096 110.468,6.204 110.711,6.271 110.711 C 6.338 110.711,6.507 110.974,6.647 111.296 C 6.787 111.618,6.949 111.922,7.006 111.971 C 7.125 112.074,7.510 112.730,7.877 113.456 C 8.015 113.729,8.187 113.951,8.260 113.951 C 8.334 113.951,8.504 114.232,8.638 114.574 C 8.772 114.916,8.990 115.238,9.122 115.288 C 9.253 115.339,9.361 115.504,9.361 115.656 C 9.361 115.808,9.432 115.932,9.519 115.932 C 9.606 115.932,9.778 116.175,9.901 116.472 C 10.024 116.769,10.198 117.012,10.289 117.012 C 10.379 117.012,10.504 117.147,10.568 117.313 C 10.689 117.628,10.829 117.809,11.691 118.760 C 11.980 119.078,12.283 119.458,12.365 119.605 C 12.759 120.309,18.904 126.733,19.184 126.733 C 19.258 126.733,19.714 127.138,20.196 127.633 C 20.678 128.128,21.137 128.533,21.216 128.533 C 21.295 128.533,21.550 128.735,21.782 128.983 C 22.015 129.230,22.292 129.436,22.399 129.441 C 22.505 129.445,22.791 129.688,23.034 129.981 C 23.277 130.273,23.563 130.513,23.669 130.513 C 23.775 130.513,24.001 130.675,24.171 130.873 C 24.340 131.071,24.601 131.233,24.751 131.233 C 24.900 131.233,25.023 131.316,25.023 131.418 C 25.023 131.519,25.225 131.679,25.473 131.773 C 25.720 131.867,25.923 132.022,25.923 132.117 C 25.923 132.211,26.075 132.337,26.261 132.396 C 26.448 132.456,26.792 132.662,27.026 132.855 C 27.261 133.049,27.534 133.273,27.633 133.355 C 27.732 133.437,28.076 133.620,28.398 133.762 C 28.720 133.905,28.983 134.083,28.983 134.157 C 28.983 134.232,29.107 134.293,29.259 134.293 C 29.410 134.293,29.579 134.410,29.634 134.552 C 29.688 134.695,29.975 134.865,30.270 134.929 C 30.566 134.994,30.849 135.156,30.900 135.290 C 30.951 135.423,31.229 135.583,31.518 135.647 C 31.807 135.710,32.043 135.827,32.043 135.906 C 32.043 135.986,32.509 136.282,33.078 136.565 C 33.648 136.848,34.155 137.135,34.205 137.203 C 34.256 137.270,34.526 137.383,34.805 137.453 C 35.084 137.523,35.353 137.685,35.402 137.814 C 35.452 137.943,35.891 138.150,36.378 138.275 C 36.865 138.400,37.264 138.559,37.264 138.628 C 37.264 138.698,37.466 138.806,37.714 138.868 C 37.961 138.930,38.164 139.050,38.164 139.134 C 38.164 139.218,38.528 139.389,38.974 139.514 C 39.419 139.639,39.784 139.802,39.784 139.877 C 39.784 139.952,40.068 140.067,40.414 140.132 C 40.761 140.197,41.044 140.328,41.044 140.422 C 41.044 140.517,41.189 140.594,41.366 140.594 C 41.543 140.594,42.004 140.755,42.391 140.952 C 42.778 141.150,43.362 141.361,43.689 141.423 C 44.017 141.484,44.284 141.600,44.284 141.681 C 44.284 141.762,44.730 141.928,45.275 142.050 C 45.819 142.172,46.265 142.333,46.265 142.407 C 46.265 142.482,46.589 142.597,46.985 142.664 C 47.381 142.731,47.705 142.852,47.705 142.934 C 47.705 143.015,48.272 143.183,48.965 143.307 C 49.658 143.431,50.225 143.597,50.225 143.677 C 50.225 143.757,50.630 143.876,51.125 143.941 C 51.620 144.007,52.025 144.124,52.025 144.201 C 52.025 144.279,52.613 144.440,53.330 144.559 C 54.048 144.678,54.716 144.839,54.815 144.916 C 54.914 144.993,55.745 145.162,56.661 145.290 C 57.577 145.418,58.326 145.582,58.326 145.654 C 58.326 145.725,58.933 145.841,59.676 145.910 C 60.419 145.980,61.026 146.097,61.026 146.169 C 61.026 146.310,64.594 146.715,65.837 146.715 C 66.244 146.715,66.604 146.794,66.637 146.890 C 66.671 146.989,68.129 147.119,69.982 147.188 C 71.789 147.256,73.267 147.379,73.267 147.463 C 73.267 147.546,75.131 147.615,77.408 147.615 C 79.685 147.615,81.548 147.546,81.548 147.463 C 81.548 147.380,83.063 147.257,84.915 147.190 C 86.767 147.123,88.326 147.002,88.380 146.921 C 88.434 146.840,89.674 146.669,91.134 146.541 C 92.595 146.413,93.789 146.245,93.789 146.167 C 93.789 146.089,94.417 145.967,95.185 145.896 C 95.952 145.825,96.637 145.677,96.707 145.567 C 96.878 145.300,99.717 145.322,99.883 145.591 C 99.951 145.701,100.431 145.847,100.948 145.916 C 101.466 145.985,101.890 146.099,101.890 146.169 C 101.890 146.239,102.579 146.404,103.420 146.535 C 104.262 146.666,104.950 146.835,104.950 146.911 C 104.950 146.987,105.396 147.104,105.941 147.173 C 106.485 147.241,106.931 147.359,106.931 147.437 C 106.931 147.514,107.619 147.680,108.461 147.805 C 109.302 147.930,109.991 148.097,109.991 148.175 C 109.991 148.253,110.477 148.372,111.071 148.439 C 111.665 148.506,112.151 148.619,112.151 148.689 C 112.151 148.759,112.840 148.924,113.681 149.055 C 114.523 149.186,115.212 149.355,115.212 149.431 C 115.212 149.507,115.657 149.625,116.202 149.693 C 116.746 149.761,117.192 149.880,117.192 149.957 C 117.192 150.034,117.880 150.200,118.722 150.325 C 119.563 150.451,120.252 150.615,120.252 150.691 C 120.252 150.767,120.698 150.885,121.242 150.953 C 121.787 151.021,122.232 151.137,122.232 151.211 C 122.232 151.285,122.860 151.446,123.627 151.569 C 124.395 151.692,125.104 151.856,125.203 151.935 C 125.302 152.014,126.010 152.179,126.778 152.301 C 127.545 152.424,128.173 152.584,128.173 152.657 C 128.173 152.729,128.596 152.845,129.113 152.914 C 129.631 152.982,130.138 153.108,130.241 153.193 C 130.343 153.278,131.095 153.453,131.910 153.581 C 132.726 153.710,133.393 153.870,133.393 153.937 C 133.393 154.005,133.879 154.116,134.473 154.185 C 135.068 154.254,135.554 154.374,135.554 154.451 C 135.554 154.528,136.202 154.692,136.994 154.815 C 137.786 154.939,138.434 155.101,138.434 155.177 C 138.434 155.252,138.878 155.370,139.421 155.437 C 139.964 155.505,140.449 155.626,140.498 155.706 C 140.547 155.785,141.237 155.952,142.031 156.075 C 142.825 156.199,143.474 156.361,143.474 156.437 C 143.474 156.512,143.919 156.630,144.462 156.698 C 145.005 156.765,145.489 156.886,145.539 156.966 C 145.588 157.046,146.278 157.217,147.072 157.346 C 147.865 157.475,148.515 157.638,148.515 157.707 C 148.515 157.777,148.959 157.890,149.502 157.958 C 150.045 158.025,150.536 158.156,150.593 158.248 C 150.842 158.651,151.983 158.438,151.864 158.011 C 151.801 157.788,151.700 157.261,151.638 156.841 C 151.577 156.420,151.464 156.076,151.388 156.076 C 151.311 156.076,151.193 155.671,151.125 155.176 C 151.057 154.680,150.939 154.275,150.862 154.275 C 150.786 154.275,150.615 153.668,150.483 152.925 C 150.351 152.183,150.181 151.575,150.105 151.575 C 150.029 151.575,149.914 151.170,149.848 150.675 C 149.782 150.180,149.665 149.775,149.588 149.775 C 149.511 149.775,149.346 149.208,149.222 148.515 C 149.099 147.822,148.942 147.255,148.875 147.255 C 148.808 147.255,148.645 146.684,148.513 145.986 C 148.382 145.289,148.209 144.678,148.130 144.629 C 148.050 144.580,147.932 144.138,147.867 143.647 C 147.802 143.156,147.688 142.754,147.615 142.754 C 147.542 142.754,147.382 142.248,147.261 141.629 C 147.140 141.010,146.977 140.423,146.898 140.324 C 146.820 140.225,146.699 139.800,146.629 139.379 C 146.560 138.958,146.445 138.614,146.375 138.614 C 146.304 138.614,146.138 138.004,146.006 137.259 C 145.873 136.514,145.702 135.865,145.625 135.818 C 145.549 135.770,145.429 135.388,145.360 134.968 C 145.291 134.547,145.170 134.122,145.091 134.023 C 145.013 133.924,144.848 133.317,144.726 132.673 C 144.603 132.030,144.441 131.422,144.365 131.323 C 144.289 131.224,144.168 130.819,144.097 130.423 C 144.026 130.027,143.906 129.622,143.830 129.523 C 143.755 129.424,143.595 128.857,143.474 128.263 C 143.354 127.669,143.192 127.102,143.115 127.003 C 143.038 126.904,142.918 126.478,142.849 126.058 C 142.779 125.637,142.666 125.293,142.597 125.293 C 142.529 125.293,142.365 124.705,142.234 123.987 C 142.102 123.270,141.926 122.597,141.842 122.493 C 141.509 122.080,141.448 120.864,141.746 120.566 C 141.905 120.407,142.034 120.196,142.034 120.095 C 142.034 119.995,142.180 119.807,142.357 119.677 C 142.535 119.548,142.920 119.118,143.212 118.722 C 144.050 117.588,144.087 117.543,144.419 117.229 C 144.593 117.066,144.734 116.865,144.734 116.784 C 144.734 116.578,145.498 115.512,145.770 115.338 C 145.893 115.258,145.995 115.074,145.995 114.927 C 145.995 114.780,146.111 114.615,146.254 114.561 C 146.396 114.506,146.563 114.232,146.625 113.951 C 146.686 113.671,146.846 113.400,146.979 113.349 C 147.112 113.297,147.274 113.014,147.339 112.718 C 147.404 112.423,147.573 112.137,147.716 112.082 C 147.858 112.027,147.975 111.858,147.975 111.707 C 147.975 111.555,148.040 111.431,148.119 111.431 C 148.198 111.431,148.365 111.148,148.490 110.801 C 148.616 110.455,148.781 110.171,148.858 110.171 C 148.935 110.171,149.095 109.847,149.214 109.451 C 149.332 109.055,149.501 108.731,149.588 108.731 C 149.675 108.731,149.800 108.488,149.865 108.191 C 149.930 107.894,150.043 107.651,150.115 107.651 C 150.188 107.651,150.351 107.246,150.478 106.751 C 150.605 106.256,150.773 105.851,150.852 105.851 C 150.931 105.851,151.048 105.567,151.113 105.221 C 151.178 104.874,151.296 104.590,151.375 104.590 C 151.453 104.590,151.625 104.145,151.755 103.600 C 151.886 103.056,152.052 102.610,152.124 102.610 C 152.196 102.610,152.312 102.306,152.381 101.935 C 152.451 101.564,152.571 101.179,152.648 101.080 C 152.725 100.981,152.895 100.353,153.025 99.685 C 153.155 99.017,153.320 98.470,153.391 98.470 C 153.462 98.470,153.578 97.964,153.649 97.345 C 153.720 96.726,153.847 96.176,153.930 96.123 C 154.013 96.070,154.182 94.916,154.305 93.558 C 154.427 92.200,154.592 91.089,154.672 91.089 C 154.751 91.089,154.815 88.902,154.815 86.229 C 154.815 83.555,154.751 81.368,154.672 81.368 C 154.593 81.368,154.432 80.304,154.314 79.004 C 154.196 77.704,154.028 76.549,153.940 76.439 C 153.852 76.328,153.723 75.772,153.655 75.203 C 153.586 74.633,153.470 74.167,153.398 74.167 C 153.326 74.167,153.159 73.558,153.026 72.813 C 152.894 72.067,152.723 71.419,152.646 71.371 C 152.569 71.324,152.452 70.962,152.385 70.566 C 152.318 70.171,152.203 69.847,152.128 69.847 C 152.054 69.847,151.886 69.401,151.755 68.857 C 151.625 68.312,151.453 67.867,151.375 67.867 C 151.296 67.867,151.178 67.583,151.113 67.237 C 151.048 66.890,150.934 66.607,150.858 66.607 C 150.783 66.607,150.620 66.242,150.495 65.797 C 150.370 65.351,150.198 64.986,150.112 64.986 C 150.025 64.986,149.955 64.830,149.955 64.639 C 149.955 64.448,149.837 64.175,149.694 64.031 C 149.550 63.887,149.378 63.551,149.311 63.284 C 149.244 63.016,149.078 62.755,148.942 62.702 C 148.806 62.650,148.695 62.523,148.695 62.419 C 148.695 62.114,147.797 60.306,147.646 60.306 C 147.569 60.306,147.405 60.023,147.279 59.676 C 147.154 59.329,146.976 59.046,146.883 59.046 C 146.790 59.046,146.715 58.928,146.715 58.785 C 146.715 58.641,146.613 58.459,146.489 58.380 C 146.365 58.301,146.149 58.013,146.009 57.741 C 145.756 57.251,144.014 56.953,144.014 57.400 C 144.014 57.485,143.285 57.654,142.394 57.776 C 141.503 57.898,140.774 58.061,140.774 58.138 C 140.774 58.216,140.269 58.337,139.651 58.406 C 139.033 58.476,138.476 58.618,138.412 58.721 C 138.220 59.032,135.333 59.003,134.948 58.686 C 134.533 58.345,133.915 57.728,133.604 57.345 C 133.350 57.032,133.046 54.492,133.038 52.610 C 133.035 51.991,132.960 51.485,132.871 51.485 C 132.781 51.485,132.650 50.189,132.578 48.605 C 132.506 47.021,132.377 45.725,132.290 45.725 C 132.204 45.725,132.133 45.163,132.133 44.476 C 132.133 43.069,131.913 42.304,131.508 42.304 C 131.357 42.304,131.233 42.237,131.233 42.155 C 131.233 42.072,131.014 41.890,130.747 41.750 C 130.480 41.609,130.032 41.271,129.751 40.999 C 129.470 40.727,129.175 40.504,129.094 40.504 C 129.014 40.504,128.761 40.342,128.533 40.144 C 128.305 39.946,128.017 39.784,127.895 39.784 C 127.772 39.784,127.625 39.662,127.568 39.514 C 127.511 39.365,127.344 39.244,127.197 39.244 C 127.051 39.244,126.866 39.143,126.787 39.019 C 126.614 38.749,126.131 38.433,125.338 38.068 C 125.016 37.920,124.752 37.719,124.752 37.621 C 124.752 37.524,124.642 37.444,124.507 37.444 C 124.372 37.444,124.061 37.287,123.817 37.095 C 123.574 36.903,123.158 36.692,122.893 36.625 C 122.629 36.559,122.412 36.442,122.412 36.366 C 122.412 36.205,119.165 34.563,118.846 34.563 C 118.728 34.563,118.632 34.491,118.632 34.403 C 118.632 34.315,118.429 34.192,118.182 34.129 C 117.934 34.067,117.732 33.948,117.732 33.863 C 117.732 33.779,117.367 33.608,116.922 33.483 C 116.476 33.359,116.112 33.190,116.112 33.108 C 116.112 33.026,115.828 32.906,115.482 32.841 C 115.135 32.776,114.851 32.660,114.851 32.583 C 114.851 32.506,114.487 32.335,114.041 32.204 C 113.596 32.072,113.231 31.908,113.231 31.838 C 113.231 31.769,112.969 31.654,112.649 31.584 C 112.329 31.513,111.903 31.349,111.704 31.219 C 111.504 31.088,110.997 30.926,110.576 30.859 C 110.155 30.792,109.811 30.675,109.811 30.600 C 109.811 30.525,109.527 30.410,109.181 30.345 C 108.834 30.280,108.551 30.160,108.551 30.079 C 108.551 29.998,108.065 29.829,107.471 29.703 C 106.877 29.577,106.391 29.415,106.391 29.343 C 106.391 29.271,106.043 29.164,105.618 29.106 C 105.192 29.048,104.611 28.879,104.325 28.730 C 104.039 28.582,103.374 28.407,102.848 28.341 C 102.321 28.275,101.890 28.163,101.890 28.091 C 101.890 28.019,101.202 27.854,100.360 27.723 C 99.518 27.592,98.830 27.425,98.830 27.352 C 98.830 27.279,98.263 27.162,97.570 27.093 C 96.877 27.023,96.310 26.903,96.310 26.826 C 96.310 26.749,95.378 26.582,94.239 26.455 C 93.101 26.328,92.169 26.165,92.169 26.093 C 92.169 26.021,91.339 25.903,90.324 25.832 C 89.309 25.761,88.398 25.639,88.299 25.561 C 87.757 25.135,76.722 24.939,70.212 25.239 M84.158 36.349 C 121.122 39.529,146.741 66.755,139.901 95.590 C 139.551 97.062,138.592 100.154,138.253 100.900 C 138.163 101.098,137.876 101.787,137.615 102.430 C 135.939 106.558,131.496 113.276,128.627 116.022 C 128.524 116.121,128.251 116.416,128.022 116.679 L 127.604 117.155 128.176 119.109 C 128.490 120.183,128.787 121.224,128.837 121.422 C 128.929 121.793,129.187 122.727,130.604 127.813 C 131.793 132.080,132.811 135.690,133.507 138.113 C 134.335 140.993,134.343 140.948,133.054 140.596 C 132.696 140.498,131.229 140.138,129.793 139.795 C 128.357 139.452,125.806 138.840,124.122 138.434 C 122.439 138.029,120.374 137.537,119.532 137.341 C 118.690 137.144,117.718 136.907,117.372 136.814 C 117.025 136.720,116.053 136.483,115.212 136.287 C 112.027 135.545,107.537 134.463,106.931 134.292 C 106.133 134.067,104.371 133.649,102.524 133.247 L 101.087 132.934 98.563 133.617 C 82.149 138.061,63.934 137.211,49.216 131.315 C 40.738 127.918,30.925 121.515,26.837 116.713 C 26.598 116.432,25.968 115.729,25.438 115.152 C 11.914 100.423,10.138 79.435,21.032 63.093 C 28.460 51.950,41.819 42.704,55.896 38.964 C 61.506 37.474,65.945 36.677,70.477 36.348 C 71.962 36.240,73.218 36.110,73.267 36.059 C 73.412 35.911,81.597 36.129,84.158 36.349 M202.685 105.654 C 201.710 105.968,200.180 107.258,200.180 107.767 C 200.180 107.901,200.107 108.011,200.018 108.011 C 199.776 108.011,199.460 109.047,199.460 109.838 C 199.460 110.219,199.379 110.531,199.280 110.531 C 199.181 110.531,199.100 110.896,199.100 111.341 C 199.100 111.787,199.181 112.151,199.280 112.151 C 199.379 112.151,199.460 112.374,199.461 112.646 C 199.462 113.361,199.810 114.507,200.119 114.816 C 200.265 114.962,200.510 115.273,200.663 115.507 C 200.816 115.740,201.045 115.932,201.172 115.932 C 201.298 115.932,201.444 116.043,201.496 116.178 C 201.548 116.314,201.820 116.483,202.099 116.553 C 202.378 116.623,202.665 116.775,202.737 116.891 C 202.926 117.198,207.413 117.184,207.516 116.877 C 207.557 116.753,207.753 116.652,207.952 116.652 C 208.434 116.652,209.645 115.773,209.937 115.212 C 210.065 114.964,210.272 114.697,210.396 114.618 C 210.520 114.538,210.621 114.332,210.621 114.158 C 210.621 113.985,210.722 113.742,210.846 113.618 C 211.141 113.323,211.160 109.257,210.868 108.894 C 210.756 108.755,210.607 108.451,210.535 108.218 C 210.373 107.689,209.303 106.607,208.364 106.024 C 207.601 105.549,203.782 105.301,202.685 105.654 M160.576 131.773 L 160.576 157.156 176.958 157.156 L 193.339 157.156 193.339 152.205 L 193.339 147.255 182.448 147.255 L 171.557 147.255 171.557 126.823 L 171.557 106.391 166.067 106.391 L 160.576 106.391 160.576 131.773 M256.706 132.313 L 256.706 157.156 262.106 157.156 L 267.507 157.156 267.507 151.110 C 267.507 145.009,267.558 144.551,268.124 145.544 C 268.230 145.731,268.965 146.548,269.757 147.362 C 270.549 148.175,271.342 149.031,271.518 149.263 C 271.922 149.793,273.981 152.007,275.923 153.997 C 276.739 154.835,277.408 155.575,277.408 155.642 C 277.408 155.709,277.712 156.077,278.083 156.460 L 278.758 157.155 285.824 157.156 C 293.657 157.156,293.369 157.211,292.079 155.958 C 291.634 155.525,291.269 155.111,291.269 155.038 C 291.269 154.965,290.378 153.999,289.289 152.892 C 288.200 151.784,287.309 150.828,287.309 150.767 C 287.309 150.706,286.438 149.767,285.374 148.681 C 284.309 147.595,282.831 146.050,282.088 145.249 C 281.346 144.448,280.587 143.660,280.403 143.498 C 279.807 142.976,279.664 142.822,279.298 142.312 C 279.100 142.036,278.062 140.927,276.992 139.848 L 275.047 137.886 277.485 135.459 C 278.827 134.125,279.978 133.033,280.045 133.033 C 280.111 133.033,281.296 131.899,282.679 130.513 C 284.061 129.127,285.244 127.993,285.308 127.993 C 285.371 127.993,286.578 126.859,287.991 125.473 C 289.403 124.086,290.603 122.952,290.658 122.952 C 290.882 122.952,292.163 121.468,292.070 121.316 C 291.922 121.079,277.768 121.100,277.768 121.338 C 277.768 121.440,277.635 121.575,277.472 121.637 C 277.310 121.699,276.055 122.871,274.685 124.242 C 273.314 125.612,272.141 126.733,272.077 126.733 C 272.013 126.733,270.993 127.705,269.810 128.893 C 268.628 130.081,267.625 131.053,267.583 131.053 C 267.541 131.053,267.507 125.747,267.507 119.262 L 267.507 107.471 262.106 107.471 L 256.706 107.471 256.706 132.313 M367.372 120.375 C 366.901 120.417,366.517 120.519,366.517 120.601 C 366.517 120.684,366.132 120.809,365.662 120.879 C 364.834 121.002,363.280 121.602,363.096 121.869 C 363.047 121.941,362.709 122.097,362.346 122.215 C 361.982 122.334,361.588 122.548,361.469 122.691 C 361.349 122.835,361.140 122.952,361.004 122.952 C 360.868 122.952,360.756 123.036,360.756 123.138 C 360.756 123.240,360.614 123.377,360.441 123.443 C 360.014 123.605,357.336 126.231,357.336 126.488 C 357.336 126.602,357.214 126.741,357.066 126.798 C 356.917 126.855,356.796 127.025,356.796 127.177 C 356.796 127.329,356.720 127.453,356.627 127.453 C 356.535 127.453,356.356 127.736,356.231 128.083 C 356.106 128.429,355.939 128.713,355.859 128.713 C 355.780 128.713,355.716 128.815,355.716 128.941 C 355.716 129.066,355.559 129.460,355.368 129.816 C 355.177 130.173,354.966 130.759,354.898 131.119 C 354.831 131.479,354.715 131.773,354.642 131.773 C 354.483 131.773,354.095 134.000,354.095 134.913 C 354.095 135.265,354.014 135.554,353.915 135.554 C 353.801 135.554,353.735 136.874,353.735 139.154 C 353.735 141.434,353.801 142.754,353.915 142.754 C 354.014 142.754,354.095 143.036,354.095 143.381 C 354.095 144.296,354.505 146.535,354.672 146.535 C 354.751 146.535,354.815 146.655,354.815 146.801 C 354.815 147.157,355.768 149.488,355.945 149.566 C 356.022 149.600,356.202 149.884,356.346 150.197 C 356.761 151.096,356.980 151.371,358.446 152.820 C 360.019 154.376,360.554 154.815,360.874 154.815 C 360.997 154.815,361.163 154.918,361.242 155.042 C 361.406 155.301,363.257 156.256,363.594 156.256 C 363.716 156.256,363.816 156.328,363.816 156.416 C 363.816 156.504,364.120 156.632,364.491 156.702 C 364.863 156.771,365.248 156.895,365.347 156.976 C 366.200 157.679,376.149 157.680,377.048 156.977 C 377.147 156.900,377.572 156.780,377.993 156.710 C 378.414 156.641,378.758 156.510,378.758 156.420 C 378.758 156.330,378.894 156.256,379.060 156.256 C 379.472 156.256,380.558 155.852,380.558 155.699 C 380.558 155.631,380.834 155.524,381.171 155.461 C 381.508 155.397,381.826 155.234,381.879 155.098 C 381.931 154.961,382.222 154.795,382.526 154.728 C 382.830 154.661,383.078 154.530,383.078 154.435 C 383.078 154.341,383.220 154.212,383.393 154.149 C 383.567 154.086,383.932 153.805,384.205 153.525 C 384.478 153.244,384.776 153.015,384.868 153.015 C 385.223 153.015,385.815 151.925,385.703 151.478 C 385.642 151.234,385.519 151.035,385.431 151.035 C 385.342 151.035,384.918 150.713,384.489 150.320 C 384.060 149.926,383.648 149.602,383.575 149.600 C 383.502 149.597,383.209 149.352,382.925 149.055 C 382.642 148.758,382.320 148.515,382.210 148.515 C 382.101 148.515,381.927 148.358,381.825 148.167 C 381.722 147.976,381.480 147.769,381.287 147.708 C 381.094 147.646,380.658 147.337,380.319 147.020 C 379.000 145.789,378.957 145.779,378.218 146.535 C 377.927 146.832,377.604 147.075,377.498 147.075 C 377.393 147.075,377.260 147.196,377.203 147.345 C 377.146 147.493,377.018 147.615,376.920 147.615 C 376.821 147.615,376.337 147.817,375.844 148.065 C 375.351 148.312,374.799 148.515,374.618 148.515 C 374.436 148.515,374.260 148.597,374.226 148.698 C 374.050 149.228,368.667 149.243,368.325 148.715 C 368.271 148.631,368.031 148.502,367.791 148.427 C 367.289 148.270,367.168 148.180,365.963 147.063 C 365.475 146.611,365.077 146.154,365.077 146.047 C 365.077 145.940,364.959 145.808,364.816 145.753 C 364.673 145.698,364.502 145.366,364.436 145.014 C 364.370 144.662,364.252 144.374,364.173 144.374 C 364.095 144.374,363.974 143.969,363.906 143.474 C 363.838 142.979,363.709 142.574,363.619 142.574 C 363.530 142.574,363.456 142.331,363.456 142.034 L 363.456 141.494 376.058 141.494 L 388.659 141.494 388.659 137.984 C 388.659 136.053,388.588 134.473,388.502 134.473 C 388.416 134.473,388.290 133.987,388.223 133.393 C 388.156 132.799,388.024 132.313,387.930 132.313 C 387.836 132.313,387.759 132.152,387.759 131.956 C 387.759 131.457,387.348 129.973,387.210 129.973 C 387.148 129.973,386.989 129.649,386.859 129.253 C 386.728 128.857,386.559 128.533,386.484 128.533 C 386.409 128.533,386.295 128.297,386.232 128.008 C 386.169 127.719,386.000 127.438,385.858 127.383 C 385.715 127.329,385.599 127.176,385.599 127.045 C 385.599 126.913,385.359 126.607,385.066 126.364 C 384.773 126.121,384.530 125.837,384.526 125.733 C 384.518 125.537,383.014 124.032,382.825 124.032 C 382.766 124.032,382.566 123.891,382.380 123.717 C 381.781 123.160,381.211 122.772,380.991 122.772 C 380.873 122.772,380.734 122.661,380.682 122.525 C 380.630 122.390,380.368 122.224,380.101 122.156 C 379.833 122.089,379.497 121.917,379.353 121.773 C 379.210 121.630,378.941 121.512,378.756 121.512 C 378.571 121.512,378.376 121.443,378.324 121.358 C 378.271 121.273,377.720 121.097,377.098 120.967 C 376.476 120.838,375.911 120.645,375.841 120.540 C 375.713 120.346,369.117 120.217,367.372 120.375 M199.100 139.154 L 199.100 157.156 204.590 157.156 L 210.081 157.156 210.081 139.154 L 210.081 121.152 204.590 121.152 L 199.100 121.152 199.100 139.154 M216.922 139.154 L 216.922 157.156 222.412 157.156 L 227.903 157.156 227.903 146.085 C 227.903 139.535,227.970 135.014,228.067 135.014 C 228.157 135.014,228.286 134.688,228.353 134.290 C 228.421 133.892,228.590 133.452,228.729 133.313 C 228.869 133.173,228.983 133.006,228.983 132.940 C 228.983 132.704,230.596 131.260,231.000 131.134 C 231.227 131.063,231.459 130.933,231.516 130.846 C 231.875 130.290,236.544 130.328,236.544 130.886 C 236.544 130.965,236.699 131.078,236.889 131.139 C 237.334 131.280,238.704 132.529,238.704 132.793 C 238.704 132.904,238.818 133.038,238.957 133.092 C 239.096 133.145,239.268 133.458,239.340 133.786 C 239.411 134.115,239.560 134.441,239.672 134.512 C 239.817 134.604,239.889 137.810,239.927 145.898 L 239.979 157.156 245.380 157.156 L 250.781 157.156 250.728 144.548 C 250.690 135.551,250.618 131.903,250.475 131.812 C 250.365 131.741,250.218 131.298,250.149 130.828 C 250.080 130.358,249.953 129.973,249.868 129.973 C 249.783 129.973,249.658 129.710,249.590 129.388 C 249.481 128.872,248.891 127.702,248.614 127.453 C 248.559 127.403,248.406 127.153,248.275 126.897 C 248.143 126.640,247.631 126.033,247.136 125.547 C 246.642 125.060,246.104 124.521,245.941 124.347 C 245.778 124.174,245.541 124.032,245.415 124.032 C 245.288 124.032,245.185 123.949,245.185 123.848 C 245.185 123.746,244.982 123.586,244.734 123.492 C 244.487 123.398,244.284 123.245,244.284 123.151 C 244.284 123.057,244.041 122.928,243.744 122.862 C 243.447 122.797,243.204 122.677,243.204 122.596 C 243.204 122.515,242.779 122.347,242.259 122.224 C 241.739 122.101,241.268 121.929,241.211 121.841 C 241.154 121.754,240.688 121.633,240.175 121.572 C 239.663 121.512,239.244 121.392,239.244 121.307 C 239.244 121.222,237.786 121.152,236.004 121.152 C 234.221 121.152,232.763 121.222,232.763 121.307 C 232.763 121.392,232.338 121.512,231.819 121.574 C 231.300 121.635,230.848 121.768,230.814 121.869 C 230.781 121.970,230.624 122.052,230.466 122.052 C 230.039 122.052,228.983 122.463,228.983 122.628 C 228.983 122.708,228.859 122.772,228.707 122.772 C 228.556 122.772,228.385 122.894,228.328 123.042 C 228.101 123.634,227.903 123.256,227.903 122.232 L 227.903 121.152 222.412 121.152 L 216.922 121.152 216.922 139.154 M296.310 139.154 L 296.310 157.156 301.710 157.156 L 307.111 157.156 307.111 146.815 C 307.111 140.116,307.174 136.436,307.291 136.364 C 307.390 136.302,307.471 135.928,307.471 135.533 C 307.471 134.645,307.817 133.213,308.032 133.213 C 308.119 133.213,308.191 133.098,308.191 132.958 C 308.191 132.633,309.758 131.053,310.080 131.053 C 310.213 131.053,310.348 130.971,310.382 130.870 C 310.569 130.308,315.212 130.327,315.212 130.889 C 315.212 130.979,315.295 131.053,315.397 131.053 C 315.655 131.053,317.372 132.749,317.372 133.005 C 317.372 133.119,317.443 133.213,317.531 133.213 C 317.924 133.213,317.991 134.707,318.083 145.545 L 318.182 157.066 323.177 157.114 L 328.173 157.161 328.173 146.008 C 328.173 139.475,328.241 134.813,328.337 134.753 C 328.428 134.697,328.557 134.322,328.625 133.920 C 328.693 133.518,328.862 133.145,329.001 133.092 C 329.139 133.038,329.253 132.891,329.253 132.765 C 329.253 132.471,330.705 131.053,331.006 131.053 C 331.131 131.053,331.233 130.980,331.233 130.892 C 331.233 130.638,333.518 130.305,334.446 130.423 C 336.093 130.631,338.434 132.336,338.434 133.325 C 338.434 133.445,338.513 133.570,338.609 133.603 C 339.025 133.746,339.147 136.678,339.150 146.670 L 339.154 157.156 344.104 157.156 L 349.055 157.156 349.055 145.365 C 349.055 137.624,348.993 133.573,348.875 133.573 C 348.776 133.573,348.695 133.303,348.695 132.973 C 348.695 132.115,348.314 130.333,348.130 130.333 C 348.045 130.333,347.975 130.136,347.975 129.896 C 347.975 129.655,347.866 129.349,347.732 129.216 C 347.598 129.082,347.392 128.678,347.273 128.317 C 347.154 127.957,346.939 127.564,346.795 127.445 C 346.652 127.326,346.535 127.126,346.535 127.000 C 346.535 126.874,346.413 126.725,346.265 126.668 C 346.116 126.611,345.995 126.460,345.995 126.333 C 345.995 126.068,343.955 124.032,343.689 124.032 C 343.592 124.032,343.466 123.911,343.409 123.762 C 343.352 123.614,343.194 123.492,343.057 123.492 C 342.921 123.492,342.623 123.330,342.394 123.132 C 342.166 122.934,341.870 122.772,341.737 122.772 C 341.603 122.772,341.494 122.702,341.494 122.616 C 341.494 122.530,341.109 122.353,340.639 122.224 C 340.169 122.095,339.737 121.920,339.680 121.836 C 339.623 121.752,339.158 121.633,338.645 121.572 C 338.133 121.512,337.714 121.392,337.714 121.307 C 337.714 121.222,336.296 121.152,334.563 121.152 C 332.831 121.152,331.413 121.222,331.413 121.307 C 331.413 121.392,330.994 121.512,330.482 121.572 C 329.969 121.633,329.503 121.752,329.447 121.836 C 329.390 121.920,328.958 122.095,328.488 122.224 C 328.018 122.353,327.633 122.528,327.633 122.612 C 327.633 122.696,327.430 122.816,327.183 122.878 C 326.935 122.940,326.733 123.058,326.733 123.140 C 326.733 123.221,326.579 123.337,326.391 123.396 C 326.203 123.456,325.758 123.780,325.401 124.116 C 324.421 125.041,324.085 125.084,323.421 124.368 C 323.112 124.035,322.617 123.641,322.321 123.493 C 322.025 123.344,321.717 123.122,321.638 122.998 C 321.559 122.874,321.377 122.772,321.233 122.772 C 321.090 122.772,320.972 122.702,320.972 122.616 C 320.972 122.530,320.587 122.353,320.117 122.224 C 319.647 122.095,319.215 121.920,319.158 121.836 C 319.101 121.752,318.636 121.633,318.123 121.572 C 317.611 121.512,317.192 121.392,317.192 121.307 C 317.192 121.222,315.855 121.152,314.221 121.152 C 312.588 121.152,311.251 121.222,311.251 121.308 C 311.251 121.394,310.915 121.510,310.505 121.565 C 310.095 121.620,309.710 121.736,309.650 121.822 C 309.590 121.909,309.184 122.084,308.747 122.212 C 308.311 122.339,307.839 122.558,307.699 122.698 C 307.257 123.140,307.111 122.979,307.111 122.052 L 307.111 121.152 301.710 121.152 L 296.310 121.152 296.310 139.154 M393.654 121.636 C 393.481 121.682,393.339 121.794,393.339 121.885 C 393.339 121.977,393.232 122.052,393.102 122.052 C 392.844 122.052,392.079 122.851,392.079 123.121 C 392.079 123.212,391.937 123.428,391.764 123.602 C 391.366 123.999,391.287 127.818,391.674 127.948 C 391.798 127.989,391.899 128.104,391.899 128.204 C 391.899 128.470,392.851 129.433,393.114 129.433 C 393.238 129.433,393.339 129.510,393.339 129.605 C 393.339 129.699,393.643 129.831,394.014 129.898 C 394.386 129.965,394.789 130.099,394.910 130.195 C 395.492 130.656,397.987 129.982,398.891 129.119 C 400.265 127.809,400.462 123.877,399.214 122.671 C 398.122 121.614,395.561 121.138,393.654 121.636 M396.115 122.568 C 396.168 122.654,396.485 122.768,396.819 122.822 C 399.430 123.246,399.596 127.995,397.022 128.641 C 396.779 128.702,396.580 128.824,396.580 128.912 C 396.580 129.001,396.256 129.073,395.860 129.073 C 395.464 129.073,395.140 129.002,395.140 128.915 C 395.140 128.829,394.900 128.710,394.608 128.652 C 394.015 128.533,393.159 127.868,393.159 127.525 C 393.159 127.403,393.058 127.269,392.934 127.228 C 392.780 127.176,392.709 126.711,392.709 125.743 C 392.709 124.774,392.780 124.309,392.934 124.257 C 393.058 124.216,393.159 124.082,393.159 123.960 C 393.159 123.588,394.057 122.930,394.707 122.825 C 395.044 122.770,395.320 122.655,395.320 122.569 C 395.320 122.365,395.989 122.365,396.115 122.568 M395.680 123.762 C 395.680 124.142,395.596 124.212,395.140 124.212 L 394.599 124.212 394.599 126.013 L 394.599 127.813 395.307 127.813 C 395.897 127.813,396.028 127.746,396.094 127.408 L 396.174 127.003 396.308 127.408 C 396.470 127.897,397.660 128.016,397.660 127.543 C 397.660 127.394,397.599 127.273,397.524 127.273 C 397.222 127.273,396.914 126.217,397.109 125.853 C 397.539 125.049,397.289 123.851,396.625 123.537 C 395.917 123.204,395.680 123.260,395.680 123.762 M396.400 125.023 C 396.400 125.171,396.319 125.293,396.220 125.293 C 396.121 125.293,396.040 125.171,396.040 125.023 C 396.040 124.874,396.121 124.752,396.220 124.752 C 396.319 124.752,396.400 124.874,396.400 125.023 M373.614 128.871 C 373.667 128.958,374.086 129.123,374.545 129.239 C 375.004 129.354,375.486 129.546,375.617 129.666 C 375.749 129.785,376.141 130.086,376.489 130.333 C 376.837 130.581,377.216 131.006,377.332 131.278 C 377.447 131.550,377.613 131.773,377.700 131.773 C 377.787 131.773,377.858 131.897,377.858 132.049 C 377.858 132.200,377.975 132.370,378.118 132.425 C 378.262 132.480,378.477 132.963,378.597 133.499 C 378.717 134.035,378.883 134.473,378.967 134.473 C 379.050 134.473,379.118 134.554,379.118 134.653 C 379.118 134.771,376.534 134.833,371.725 134.833 C 364.418 134.833,364.333 134.829,364.434 134.473 C 364.490 134.275,364.588 133.931,364.651 133.708 C 364.714 133.486,364.815 133.263,364.876 133.213 C 364.937 133.164,365.146 132.811,365.341 132.428 C 365.675 131.772,367.078 130.246,367.959 129.580 C 368.180 129.414,368.674 129.224,369.059 129.159 C 369.443 129.094,369.757 128.967,369.757 128.877 C 369.757 128.667,373.484 128.660,373.614 128.871 M177.318 165.167 L 177.318 166.517 179.928 166.517 L 182.538 166.517 182.538 172.817 L 182.538 179.118 183.798 179.118 L 185.059 179.118 185.059 172.817 L 185.059 166.517 187.219 166.517 L 189.379 166.517 189.379 165.167 L 189.379 163.816 183.348 163.816 L 177.318 163.816 177.318 165.167 M314.131 171.917 L 314.131 180.018 320.072 180.018 L 326.013 180.018 326.013 178.848 L 326.013 177.678 321.332 177.678 L 316.652 177.678 316.652 175.248 L 316.652 172.817 320.792 172.817 L 324.932 172.817 324.932 171.467 L 324.932 170.117 320.792 170.117 L 316.652 170.117 316.652 168.317 L 316.652 166.517 321.332 166.517 L 326.013 166.517 326.013 165.167 L 326.013 163.816 320.072 163.816 L 314.131 163.816 314.131 171.917 M330.693 165.167 L 330.693 166.517 332.853 166.517 L 335.014 166.517 335.014 172.817 L 335.014 179.118 336.274 179.118 L 337.534 179.118 337.534 172.817 L 337.534 166.517 340.144 166.517 L 342.754 166.517 342.754 165.167 L 342.754 163.816 336.724 163.816 L 330.693 163.816 330.693 165.167 M378.038 163.968 C 378.038 164.051,377.592 164.219,377.048 164.341 C 376.503 164.463,376.058 164.637,376.058 164.729 C 376.058 164.821,375.948 164.896,375.815 164.896 C 375.413 164.896,373.897 166.248,373.897 166.606 C 373.897 166.734,373.776 166.885,373.627 166.942 C 373.479 166.999,373.357 167.163,373.357 167.306 C 373.357 167.449,373.273 167.595,373.169 167.629 C 373.066 167.664,372.886 168.197,372.768 168.815 C 372.651 169.432,372.492 169.937,372.416 169.937 C 372.340 169.937,372.277 170.707,372.277 171.647 C 372.277 172.588,372.340 173.357,372.416 173.357 C 372.492 173.357,372.647 173.842,372.759 174.434 C 372.872 175.026,373.093 175.639,373.251 175.797 C 373.408 175.954,373.537 176.165,373.537 176.265 C 373.537 176.507,374.871 177.858,375.110 177.858 C 375.214 177.858,375.343 177.972,375.396 178.111 C 375.450 178.250,375.742 178.418,376.045 178.485 C 376.349 178.552,376.598 178.678,376.598 178.766 C 376.598 178.854,377.003 178.979,377.498 179.045 C 377.993 179.111,378.398 179.235,378.398 179.321 C 378.398 179.528,383.028 179.525,383.155 179.319 C 383.210 179.231,383.619 179.105,384.066 179.038 C 384.513 178.971,384.878 178.849,384.878 178.767 C 384.878 178.685,385.160 178.565,385.504 178.501 C 385.847 178.436,386.192 178.285,386.269 178.166 C 386.346 178.046,386.652 177.823,386.949 177.671 L 387.489 177.394 387.538 174.296 L 387.587 171.197 384.253 171.197 L 380.918 171.197 380.918 172.547 L 380.918 173.897 382.988 173.897 L 385.059 173.897 385.059 174.875 C 385.059 175.695,385.000 175.872,384.698 175.968 C 384.500 176.030,384.338 176.151,384.338 176.235 C 384.338 176.320,384.075 176.446,383.753 176.516 C 383.432 176.586,383.111 176.734,383.040 176.845 C 382.649 177.462,378.052 176.974,377.318 176.237 C 377.268 176.188,377.010 176.035,376.745 175.898 C 376.479 175.761,376.165 175.417,376.048 175.133 C 375.930 174.850,375.770 174.617,375.692 174.617 C 375.613 174.617,375.494 174.293,375.428 173.897 C 375.361 173.501,375.232 173.177,375.142 173.177 C 375.051 173.177,374.977 172.489,374.977 171.647 C 374.977 170.806,375.051 170.117,375.142 170.117 C 375.232 170.117,375.361 169.793,375.428 169.397 C 375.494 169.001,375.618 168.677,375.701 168.677 C 375.785 168.677,375.910 168.495,375.979 168.272 C 376.086 167.927,376.434 167.553,377.411 166.735 C 377.735 166.462,378.795 166.157,379.415 166.157 C 379.747 166.157,380.018 166.076,380.018 165.977 C 380.018 165.878,380.261 165.797,380.558 165.797 C 380.855 165.797,381.098 165.878,381.098 165.977 C 381.098 166.076,381.360 166.157,381.681 166.157 C 382.641 166.157,384.119 167.012,384.373 167.716 C 384.493 168.046,384.646 168.317,384.714 168.317 C 384.781 168.317,384.882 168.490,384.937 168.701 C 385.037 169.082,386.187 169.103,387.131 168.741 C 387.423 168.629,387.517 167.417,387.233 167.417 C 387.142 167.417,387.013 167.168,386.946 166.865 C 386.879 166.561,386.711 166.269,386.572 166.215 C 386.433 166.162,386.319 166.003,386.319 165.862 C 386.319 165.721,386.179 165.552,386.008 165.486 C 385.836 165.420,385.521 165.177,385.307 164.946 C 385.065 164.685,384.534 164.445,383.908 164.314 C 383.353 164.197,382.898 164.038,382.898 163.959 C 382.898 163.881,381.805 163.816,380.468 163.816 C 379.131 163.816,378.038 163.884,378.038 163.968 M220.072 164.518 C 219.874 164.605,219.538 164.880,219.324 165.128 C 219.111 165.376,218.808 165.651,218.650 165.739 C 217.838 166.194,217.944 169.326,218.796 170.059 C 219.430 170.604,219.400 171.114,218.722 171.350 C 218.425 171.454,218.182 171.624,218.182 171.728 C 218.182 171.832,218.078 171.917,217.952 171.917 C 217.672 171.917,217.143 172.511,216.669 173.357 C 216.242 174.120,216.125 177.142,216.517 177.273 C 216.640 177.314,216.742 177.460,216.742 177.598 C 216.742 177.985,218.253 179.405,218.909 179.633 C 220.109 180.052,223.942 179.790,223.942 179.289 C 223.942 179.195,224.066 179.118,224.218 179.118 C 224.370 179.118,224.537 179.004,224.591 178.866 C 224.745 178.464,225.364 178.395,225.705 178.742 C 226.998 180.060,227.995 180.300,228.408 179.392 C 228.522 179.142,228.698 178.938,228.799 178.938 C 228.900 178.938,228.983 178.695,228.983 178.398 C 228.983 178.087,228.887 177.856,228.758 177.855 C 228.634 177.853,228.342 177.650,228.109 177.405 C 227.876 177.159,227.632 176.958,227.567 176.958 C 226.996 176.958,227.006 175.154,227.579 174.781 C 227.669 174.722,227.789 174.228,227.845 173.682 L 227.948 172.691 227.363 172.574 C 226.045 172.311,225.383 172.565,225.383 173.334 C 225.383 173.914,225.064 173.950,224.720 173.408 C 224.544 173.133,224.298 172.843,224.172 172.763 C 224.046 172.684,223.942 172.499,223.942 172.353 C 223.942 172.206,223.827 172.042,223.686 171.988 C 223.123 171.771,223.772 170.297,224.430 170.297 C 224.679 170.297,225.206 169.474,225.309 168.924 C 225.371 168.590,225.495 168.317,225.583 168.317 C 225.671 168.317,225.743 167.993,225.743 167.597 C 225.743 167.201,225.672 166.877,225.585 166.877 C 225.498 166.877,225.376 166.621,225.314 166.309 C 225.012 164.801,221.866 163.726,220.072 164.518 M161.476 172.547 L 161.476 180.018 165.133 180.018 C 171.664 180.018,172.802 179.440,172.965 176.040 C 173.067 173.909,172.785 173.231,171.407 172.285 C 171.197 172.141,171.085 171.979,171.159 171.925 C 171.659 171.559,172.277 170.552,172.277 170.103 C 172.277 169.814,172.358 169.577,172.457 169.577 C 172.678 169.577,172.699 168.556,172.481 168.421 C 172.395 168.368,172.272 167.999,172.209 167.601 C 172.145 167.203,172.017 166.877,171.925 166.877 C 171.832 166.877,171.651 166.657,171.522 166.389 C 171.376 166.086,171.014 165.798,170.567 165.631 C 170.171 165.483,169.820 165.298,169.787 165.219 C 169.754 165.141,167.871 165.077,165.602 165.077 L 161.476 165.077 161.476 172.547 M194.059 172.547 L 194.059 180.018 199.010 180.018 L 203.960 180.018 203.960 178.848 L 203.960 177.678 200.270 177.678 L 196.580 177.678 196.580 171.377 L 196.580 165.077 195.320 165.077 L 194.059 165.077 194.059 172.547 M241.944 172.547 L 241.944 180.018 243.204 180.018 L 244.464 180.018 244.464 174.347 C 244.464 168.701,244.567 167.783,244.989 169.667 C 245.111 170.212,245.273 170.657,245.349 170.657 C 245.425 170.657,245.587 171.101,245.708 171.644 C 245.830 172.187,245.995 172.672,246.076 172.722 C 246.157 172.772,246.281 173.118,246.350 173.490 C 246.420 173.863,246.540 174.248,246.618 174.347 C 246.695 174.446,246.865 174.953,246.996 175.473 C 247.126 175.992,247.291 176.418,247.363 176.418 C 247.435 176.418,247.548 176.742,247.615 177.138 C 247.682 177.534,247.797 177.858,247.872 177.858 C 247.947 177.858,248.106 178.296,248.226 178.832 C 248.471 179.927,248.601 180.018,249.926 180.018 C 250.981 180.018,251.098 179.875,251.510 178.083 C 251.629 177.563,251.787 177.138,251.860 177.138 C 251.934 177.138,252.048 176.814,252.115 176.418 C 252.182 176.022,252.296 175.698,252.368 175.698 C 252.440 175.698,252.604 175.171,252.732 174.527 C 252.860 173.884,253.029 173.357,253.109 173.357 C 253.189 173.357,253.308 173.034,253.375 172.638 C 253.442 172.243,253.561 171.879,253.640 171.830 C 253.719 171.782,253.883 171.214,254.005 170.569 C 254.418 168.383,254.545 169.362,254.545 174.707 L 254.545 180.018 255.806 180.018 L 257.066 180.018 257.066 172.547 L 257.066 165.077 255.446 165.077 C 253.945 165.077,253.825 165.103,253.825 165.437 C 253.825 165.635,253.754 165.797,253.666 165.797 C 253.578 165.797,253.452 166.161,253.385 166.607 C 253.318 167.052,253.193 167.417,253.107 167.417 C 253.021 167.417,252.851 167.862,252.730 168.407 C 252.608 168.951,252.449 169.397,252.377 169.397 C 252.304 169.397,252.190 169.701,252.122 170.072 C 252.054 170.443,251.889 170.917,251.755 171.126 C 251.621 171.334,251.456 171.800,251.388 172.161 C 251.320 172.522,251.193 172.817,251.105 172.817 C 251.017 172.817,250.944 172.959,250.942 173.132 C 250.940 173.452,250.585 174.559,250.380 174.887 C 250.318 174.986,250.211 175.331,250.142 175.654 C 249.985 176.383,249.765 176.274,249.599 175.385 C 249.529 175.012,249.318 174.368,249.129 173.952 C 248.940 173.537,248.785 173.071,248.785 172.917 C 248.785 172.763,248.717 172.637,248.634 172.637 C 248.550 172.637,248.379 172.171,248.253 171.602 C 248.128 171.033,247.960 170.486,247.881 170.387 C 247.802 170.288,247.680 169.903,247.611 169.532 C 247.541 169.161,247.419 168.857,247.338 168.857 C 247.257 168.857,247.091 168.411,246.969 167.867 C 246.847 167.322,246.688 166.877,246.616 166.877 C 246.544 166.877,246.429 166.582,246.362 166.221 C 246.163 165.163,245.973 165.077,243.847 165.077 L 241.944 165.077 241.944 172.547 M266.685 165.707 C 266.620 166.053,266.501 166.337,266.421 166.337 C 266.341 166.337,266.218 166.599,266.147 166.919 C 266.077 167.239,265.914 167.665,265.786 167.864 C 265.658 168.064,265.498 168.531,265.430 168.902 C 265.362 169.273,265.243 169.577,265.164 169.577 C 265.086 169.577,264.925 169.982,264.806 170.477 C 264.688 170.972,264.525 171.377,264.444 171.377 C 264.364 171.377,264.243 171.701,264.176 172.097 C 264.110 172.493,263.989 172.817,263.909 172.817 C 263.828 172.817,263.665 173.222,263.546 173.717 C 263.428 174.212,263.265 174.617,263.184 174.617 C 263.104 174.617,262.983 174.941,262.916 175.338 C 262.849 175.734,262.727 176.058,262.643 176.058 C 262.560 176.058,262.389 176.523,262.263 177.093 C 262.137 177.662,261.928 178.235,261.800 178.366 C 261.671 178.497,261.566 178.800,261.566 179.041 C 261.566 179.281,261.485 179.478,261.386 179.478 C 261.287 179.478,261.206 179.603,261.206 179.755 C 261.206 179.987,261.451 180.024,262.691 179.980 L 264.176 179.928 264.343 179.253 C 264.435 178.882,264.570 178.578,264.642 178.578 C 264.715 178.578,264.830 178.254,264.896 177.858 C 264.963 177.462,265.088 177.138,265.174 177.138 C 265.260 177.138,265.383 176.854,265.448 176.508 L 265.567 175.878 268.317 175.878 L 271.067 175.878 271.190 176.553 C 271.258 176.924,271.419 177.391,271.547 177.590 C 271.675 177.790,271.838 178.215,271.908 178.535 C 271.978 178.856,272.105 179.118,272.189 179.118 C 272.273 179.118,272.368 179.300,272.400 179.523 C 272.474 180.046,275.608 180.273,275.608 179.755 C 275.608 179.603,275.534 179.478,275.444 179.478 C 275.354 179.478,275.177 179.073,275.050 178.578 C 274.923 178.083,274.757 177.678,274.682 177.678 C 274.606 177.678,274.491 177.394,274.426 177.048 C 274.361 176.701,274.243 176.418,274.165 176.418 C 274.087 176.418,273.926 176.013,273.807 175.518 C 273.689 175.023,273.528 174.617,273.449 174.617 C 273.371 174.617,273.254 174.334,273.189 173.987 C 273.124 173.641,273.002 173.357,272.917 173.357 C 272.832 173.357,272.666 172.952,272.547 172.457 C 272.428 171.962,272.267 171.557,272.189 171.557 C 272.111 171.557,271.994 171.274,271.929 170.927 C 271.864 170.581,271.744 170.297,271.662 170.297 C 271.579 170.297,271.463 170.053,271.404 169.754 C 271.344 169.455,271.091 168.764,270.841 168.218 C 270.591 167.673,270.387 167.107,270.387 166.961 C 270.387 166.816,270.312 166.697,270.221 166.697 C 270.130 166.697,269.999 166.438,269.929 166.122 C 269.732 165.224,269.469 165.077,268.068 165.077 L 266.803 165.077 266.685 165.707 M279.568 172.547 L 279.568 180.018 280.828 180.018 L 282.088 180.018 282.088 176.958 L 282.088 173.897 283.726 173.897 C 285.841 173.897,287.525 174.754,287.932 176.036 C 287.993 176.228,288.161 176.430,288.306 176.485 C 288.450 176.541,288.569 176.702,288.569 176.843 C 288.569 176.984,288.690 177.146,288.839 177.203 C 288.987 177.260,289.109 177.418,289.109 177.554 C 289.109 177.690,289.271 177.949,289.469 178.128 C 289.667 178.307,289.829 178.554,289.829 178.677 C 289.829 178.799,289.950 178.946,290.099 179.003 C 290.248 179.060,290.369 179.228,290.369 179.376 C 290.369 179.793,290.969 180.018,292.080 180.018 C 293.041 180.018,293.442 179.437,292.681 179.146 C 292.593 179.113,292.402 178.829,292.258 178.516 C 291.899 177.737,291.581 177.255,291.314 177.084 C 291.190 177.005,291.089 176.828,291.089 176.692 C 291.089 176.555,290.978 176.332,290.842 176.197 C 290.707 176.061,290.467 175.711,290.310 175.419 C 290.153 175.127,289.697 174.569,289.297 174.181 C 288.481 173.389,288.404 173.177,288.929 173.177 C 289.127 173.177,289.289 173.105,289.289 173.017 C 289.289 172.929,289.508 172.801,289.776 172.734 C 290.302 172.602,290.808 172.142,291.366 171.287 C 291.772 170.665,291.890 167.693,291.518 167.455 C 291.408 167.385,291.255 167.124,291.178 166.877 C 290.969 166.205,290.352 165.637,289.694 165.510 C 289.372 165.447,289.109 165.324,289.109 165.236 C 289.109 165.147,287.000 165.077,284.338 165.077 L 279.568 165.077 279.568 172.547 M297.390 172.547 L 297.390 180.018 298.650 180.018 L 299.910 180.018 299.910 177.408 C 299.910 175.506,299.968 174.797,300.125 174.797 C 300.243 174.797,300.771 174.352,301.299 173.807 C 302.314 172.759,302.430 172.681,302.430 173.047 C 302.430 173.174,302.592 173.416,302.790 173.586 C 302.988 173.755,303.150 174.013,303.150 174.159 C 303.150 174.305,303.312 174.511,303.510 174.617 C 303.708 174.723,303.870 174.916,303.870 175.046 C 303.870 175.176,304.032 175.428,304.230 175.608 C 304.428 175.787,304.590 175.994,304.590 176.067 C 304.590 176.196,305.241 177.011,305.896 177.704 C 306.069 177.888,306.211 178.099,306.211 178.173 C 306.211 178.312,306.862 179.144,307.407 179.703 C 307.830 180.137,310.891 180.175,310.891 179.746 C 310.891 179.597,310.729 179.336,310.531 179.166 C 310.333 178.997,310.171 178.792,310.171 178.712 C 310.171 178.631,309.928 178.328,309.631 178.038 C 309.334 177.747,309.091 177.440,309.091 177.355 C 309.091 177.270,308.888 177.010,308.641 176.778 C 308.393 176.545,308.191 176.285,308.191 176.200 C 308.191 176.115,307.948 175.808,307.651 175.518 C 307.354 175.227,307.111 174.910,307.111 174.812 C 307.111 174.715,307.009 174.571,306.885 174.491 C 306.760 174.412,306.420 174.023,306.129 173.627 C 305.838 173.231,305.495 172.843,305.365 172.763 C 305.236 172.684,305.131 172.520,305.131 172.398 C 305.131 172.277,304.968 172.039,304.770 171.869 C 304.274 171.444,304.320 170.951,304.892 170.547 C 305.157 170.360,305.805 169.782,306.332 169.262 C 306.859 168.742,307.351 168.315,307.426 168.313 C 307.500 168.311,308.038 167.825,308.622 167.233 C 309.206 166.641,309.753 166.157,309.837 166.157 C 310.050 166.157,310.711 165.476,310.711 165.257 C 310.711 165.148,309.983 165.077,308.888 165.077 L 307.064 165.077 305.872 166.270 C 305.217 166.926,304.240 167.837,303.702 168.295 C 303.163 168.753,302.232 169.620,301.632 170.222 C 299.850 172.011,299.910 172.078,299.910 168.311 L 299.910 165.077 298.650 165.077 L 297.390 165.077 297.390 172.547 M347.435 172.547 L 347.435 180.018 348.695 180.018 L 349.955 180.018 349.955 172.547 L 349.955 165.077 348.695 165.077 L 347.435 165.077 347.435 172.547 M355.716 172.547 L 355.716 180.018 357.153 180.018 L 358.591 180.018 358.638 174.662 C 358.669 171.207,358.745 169.435,358.852 169.667 C 358.944 169.865,359.126 170.092,359.257 170.171 C 359.389 170.250,359.496 170.432,359.496 170.576 C 359.496 170.720,359.567 170.837,359.654 170.837 C 359.741 170.837,359.920 171.100,360.053 171.422 C 360.185 171.744,360.358 172.088,360.438 172.187 C 360.517 172.286,360.743 172.562,360.939 172.800 C 361.136 173.038,361.296 173.295,361.296 173.372 C 361.296 173.449,361.398 173.619,361.523 173.750 C 361.648 173.880,361.855 174.190,361.982 174.437 C 362.543 175.527,362.765 175.878,362.893 175.878 C 362.968 175.878,363.140 176.161,363.276 176.508 C 363.412 176.854,363.589 177.138,363.670 177.138 C 363.750 177.138,363.816 177.255,363.816 177.399 C 363.816 177.542,363.918 177.725,364.042 177.804 C 364.166 177.883,364.388 178.191,364.537 178.488 C 364.685 178.785,364.887 179.126,364.986 179.247 C 365.086 179.367,365.271 179.590,365.399 179.742 C 365.560 179.933,365.960 180.018,366.704 180.018 L 367.777 180.018 367.777 172.547 L 367.777 165.077 366.517 165.077 L 365.257 165.077 365.257 170.145 L 365.257 175.213 364.896 174.797 C 364.698 174.569,364.536 174.326,364.536 174.257 C 364.536 174.189,364.374 173.946,364.176 173.717 C 363.978 173.489,363.816 173.193,363.816 173.060 C 363.816 172.926,363.733 172.817,363.632 172.817 C 363.530 172.817,363.370 172.615,363.276 172.367 C 363.182 172.120,363.029 171.917,362.935 171.917 C 362.841 171.917,362.712 171.674,362.646 171.377 C 362.581 171.080,362.451 170.837,362.357 170.837 C 362.264 170.837,362.110 170.635,362.016 170.387 C 361.922 170.140,361.762 169.937,361.661 169.937 C 361.559 169.937,361.476 169.840,361.476 169.722 C 361.476 169.505,360.680 168.252,360.261 167.809 C 360.137 167.678,360.036 167.453,360.036 167.308 C 360.036 167.164,359.914 166.999,359.766 166.942 C 359.617 166.885,359.496 166.729,359.496 166.596 C 359.496 166.463,359.395 166.290,359.271 166.211 C 359.147 166.131,358.931 165.844,358.790 165.572 C 358.545 165.095,358.481 165.077,357.125 165.077 L 355.716 165.077 355.716 172.547 M222.578 166.446 C 222.734 166.506,222.862 166.668,222.862 166.806 C 222.862 166.944,222.943 167.057,223.042 167.057 C 223.141 167.057,223.222 167.340,223.222 167.687 C 223.222 168.033,223.141 168.317,223.042 168.317 C 222.943 168.317,222.862 168.423,222.862 168.553 C 222.862 168.683,222.617 168.970,222.317 169.192 L 221.772 169.595 221.237 169.060 C 220.943 168.765,220.702 168.437,220.702 168.331 C 220.702 168.224,220.621 168.137,220.522 168.137 C 220.423 168.137,220.342 167.930,220.342 167.678 C 220.342 166.773,221.609 166.074,222.578 166.446 M168.497 166.697 C 168.497 166.796,168.612 166.877,168.754 166.877 C 169.677 166.877,170.047 168.705,169.290 169.523 C 168.834 170.015,168.771 170.028,166.590 170.087 L 164.356 170.146 164.356 168.332 L 164.356 166.517 166.427 166.517 C 167.687 166.517,168.497 166.587,168.497 166.697 M288.389 166.697 C 288.389 166.796,288.507 166.877,288.651 166.877 C 288.990 166.877,289.829 167.716,289.829 168.055 C 289.829 168.199,289.910 168.317,290.009 168.317 C 290.108 168.317,290.189 168.560,290.189 168.857 C 290.189 169.154,290.108 169.397,290.009 169.397 C 289.910 169.397,289.829 169.515,289.829 169.659 C 289.829 169.990,288.993 170.837,288.666 170.837 C 288.530 170.837,288.392 170.916,288.359 171.014 C 288.325 171.113,286.946 171.243,285.194 171.312 L 282.088 171.433 282.088 168.975 L 282.088 166.517 285.239 166.517 C 287.219 166.517,288.389 166.584,288.389 166.697 M268.400 168.317 C 268.481 168.317,268.600 168.600,268.665 168.947 C 268.730 169.293,268.848 169.577,268.926 169.577 C 269.005 169.577,269.169 170.023,269.291 170.567 C 269.413 171.112,269.588 171.557,269.680 171.557 C 269.772 171.557,269.847 171.754,269.847 171.994 C 269.847 172.235,269.968 172.553,270.117 172.702 C 270.679 173.264,270.423 173.357,268.317 173.357 C 266.367 173.357,266.247 173.336,266.247 172.997 C 266.247 172.799,266.322 172.637,266.414 172.637 C 266.506 172.637,266.681 172.192,266.802 171.647 C 266.924 171.103,267.088 170.657,267.167 170.657 C 267.246 170.657,267.364 170.374,267.429 170.027 C 267.494 169.680,267.614 169.397,267.696 169.397 C 267.778 169.397,267.906 169.012,267.981 168.542 C 268.055 168.072,268.147 167.829,268.185 168.002 C 268.222 168.175,268.319 168.317,268.400 168.317 M221.242 173.088 C 221.242 173.215,221.443 173.510,221.689 173.743 C 221.935 173.977,222.137 174.231,222.139 174.308 C 222.141 174.386,222.385 174.687,222.682 174.977 C 222.979 175.268,223.222 175.592,223.222 175.697 C 223.222 175.803,223.344 175.936,223.492 175.993 C 223.951 176.168,223.467 177.138,222.921 177.138 C 222.800 177.138,222.634 177.256,222.553 177.401 C 222.465 177.557,221.990 177.714,221.389 177.784 C 219.796 177.971,218.395 176.306,218.797 174.704 C 219.086 173.550,221.242 172.125,221.242 173.088 M169.616 173.151 C 171.926 174.329,171.347 177.121,168.757 177.286 C 168.119 177.326,167.597 177.431,167.597 177.519 C 167.597 177.606,166.868 177.678,165.977 177.678 L 164.356 177.678 164.356 175.248 L 164.356 172.817 166.659 172.817 C 168.545 172.817,169.079 172.878,169.616 173.151 " stroke="none" fill="#040404" fill-rule="evenodd"></path><path id="path4" d="M75.122 36.138 C 76.192 36.170,77.893 36.170,78.903 36.138 C 79.912 36.106,79.037 36.080,76.958 36.080 C 74.878 36.080,74.053 36.106,75.122 36.138 M71.872 36.308 C 72.045 36.353,72.329 36.353,72.502 36.308 C 72.676 36.262,72.534 36.225,72.187 36.225 C 71.841 36.225,71.699 36.262,71.872 36.308 M81.416 36.313 C 81.689 36.354,82.094 36.353,82.316 36.310 C 82.537 36.268,82.313 36.234,81.818 36.235 C 81.323 36.236,81.142 36.271,81.416 36.313 M69.172 36.488 C 69.345 36.533,69.629 36.533,69.802 36.488 C 69.975 36.442,69.833 36.405,69.487 36.405 C 69.140 36.405,68.999 36.442,69.172 36.488 M66.697 36.733 C 66.342 36.829,66.526 36.845,67.237 36.779 C 67.831 36.724,68.351 36.648,68.392 36.611 C 68.526 36.491,67.252 36.582,66.697 36.733 M86.274 36.668 C 86.447 36.713,86.730 36.713,86.904 36.668 C 87.077 36.622,86.935 36.585,86.589 36.585 C 86.242 36.585,86.100 36.622,86.274 36.668 M63.017 37.280 C 62.577 37.366,62.131 37.477,62.027 37.525 C 61.714 37.670,63.606 37.406,63.996 37.250 C 64.459 37.066,64.046 37.078,63.017 37.280 M59.676 37.984 L 59.316 38.139 59.676 38.148 C 59.874 38.154,60.158 38.080,60.306 37.984 C 60.664 37.753,60.214 37.753,59.676 37.984 M57.271 38.550 C 56.938 38.646,56.701 38.759,56.744 38.802 C 56.787 38.845,57.180 38.767,57.619 38.630 C 58.514 38.349,58.211 38.280,57.271 38.550 M53.015 39.880 C 52.565 40.097,52.550 40.122,52.925 40.030 C 53.435 39.906,54.009 39.614,53.735 39.618 C 53.636 39.619,53.312 39.737,53.015 39.880 M103.165 40.398 C 103.279 40.511,107.282 42.125,107.431 42.119 C 107.689 42.108,106.913 41.742,105.142 41.040 C 103.454 40.371,102.983 40.218,103.165 40.398 M107.741 42.264 C 107.840 42.363,108.123 42.502,108.371 42.574 C 108.671 42.661,108.761 42.645,108.641 42.525 C 108.542 42.426,108.258 42.286,108.011 42.214 C 107.711 42.127,107.621 42.144,107.741 42.264 M108.911 42.761 C 108.911 42.919,110.197 43.418,110.310 43.305 C 110.366 43.250,110.367 43.204,110.313 43.204 C 110.259 43.204,109.922 43.082,109.563 42.932 C 109.204 42.782,108.911 42.705,108.911 42.761 M110.531 43.458 C 110.531 43.590,113.640 45.196,113.727 45.109 C 113.772 45.064,113.071 44.657,112.170 44.204 C 111.269 43.751,110.531 43.415,110.531 43.458 M113.951 45.265 C 113.951 45.315,114.194 45.481,114.491 45.635 C 114.788 45.788,115.032 45.873,115.032 45.824 C 115.032 45.774,114.788 45.608,114.491 45.455 C 114.194 45.301,113.951 45.216,113.951 45.265 M115.268 46.031 C 115.336 46.141,115.776 46.454,116.247 46.726 C 123.775 51.092,131.175 58.529,135.355 65.932 C 135.677 66.501,135.982 66.967,136.033 66.967 C 136.195 66.967,134.836 64.601,133.705 62.916 C 130.331 57.888,126.222 53.608,121.062 49.746 C 118.546 47.863,114.992 45.584,115.268 46.031 M29.064 53.690 L 28.353 54.455 29.118 53.744 C 29.829 53.082,29.966 52.925,29.830 52.925 C 29.800 52.925,29.456 53.270,29.064 53.690 M26.093 56.661 L 25.473 57.336 26.148 56.715 C 26.776 56.138,26.905 55.986,26.768 55.986 C 26.738 55.986,26.434 56.289,26.093 56.661 M136.094 67.235 C 136.094 67.399,136.631 68.407,136.719 68.407 C 136.849 68.407,136.427 67.332,136.256 67.226 C 136.167 67.171,136.094 67.175,136.094 67.235 M136.814 68.619 C 136.814 68.676,137.006 69.158,137.241 69.690 C 137.477 70.222,137.722 70.810,137.786 70.998 C 137.850 71.185,137.948 71.293,138.004 71.237 C 138.060 71.181,137.882 70.622,137.609 69.996 C 137.150 68.947,136.814 68.364,136.814 68.619 M138.093 71.647 C 138.088 71.796,138.242 72.241,138.437 72.637 C 138.635 73.040,138.742 73.159,138.680 72.907 C 138.510 72.215,138.104 71.344,138.093 71.647 M138.897 73.987 C 138.962 74.334,139.090 74.739,139.182 74.887 C 139.294 75.067,139.310 74.946,139.231 74.527 C 139.166 74.181,139.037 73.776,138.945 73.627 C 138.834 73.448,138.818 73.569,138.897 73.987 M139.443 75.878 C 139.508 76.274,139.632 76.719,139.721 76.868 C 139.822 77.037,139.838 76.870,139.765 76.418 C 139.700 76.022,139.576 75.576,139.487 75.428 C 139.386 75.258,139.370 75.425,139.443 75.878 M139.895 77.318 C 139.884 77.417,139.992 78.215,140.134 79.092 C 140.411 80.795,140.718 81.536,140.512 80.002 C 140.376 78.993,139.925 77.032,139.895 77.318 M140.684 86.210 C 140.684 88.922,140.740 90.826,140.809 90.440 C 140.968 89.543,140.966 83.155,140.806 82.088 C 140.739 81.643,140.684 83.497,140.684 86.210 M13.930 86.319 C 13.930 87.507,13.960 87.969,13.995 87.347 C 14.030 86.724,14.030 85.752,13.994 85.186 C 13.959 84.621,13.930 85.131,13.930 86.319 M140.359 92.026 C 140.188 92.744,140.004 94.604,140.114 94.502 C 140.257 94.370,140.648 91.803,140.542 91.697 C 140.495 91.650,140.413 91.798,140.359 92.026 M139.514 96.310 C 139.393 96.815,139.334 97.270,139.383 97.319 C 139.433 97.369,139.573 96.995,139.694 96.490 C 139.815 95.984,139.874 95.530,139.825 95.480 C 139.775 95.431,139.635 95.804,139.514 96.310 M138.897 98.483 C 138.742 99.004,138.650 99.466,138.692 99.508 C 138.735 99.551,138.896 99.159,139.051 98.637 C 139.206 98.115,139.298 97.654,139.256 97.611 C 139.213 97.569,139.052 97.961,138.897 98.483 M138.271 100.297 C 138.033 100.981,138.024 101.117,138.231 100.891 C 138.403 100.703,138.666 99.730,138.545 99.730 C 138.503 99.730,138.380 99.985,138.271 100.297 M137.639 101.905 C 137.474 102.318,137.372 102.689,137.414 102.730 C 137.455 102.771,137.624 102.468,137.789 102.055 C 137.954 101.643,138.055 101.271,138.014 101.230 C 137.973 101.189,137.804 101.493,137.639 101.905 M136.886 103.618 C 136.725 104.004,136.479 104.543,136.339 104.815 C 136.199 105.088,136.126 105.311,136.176 105.311 C 136.333 105.311,137.383 103.120,137.278 103.014 C 137.223 102.960,137.047 103.231,136.886 103.618 M135.734 105.851 C 135.619 106.066,135.565 106.282,135.614 106.331 C 135.664 106.381,135.799 106.246,135.914 106.031 C 136.029 105.816,136.082 105.599,136.033 105.550 C 135.983 105.500,135.849 105.636,135.734 105.851 M134.903 107.336 C 133.180 110.111,132.639 110.895,131.152 112.765 C 130.238 113.915,129.032 115.334,128.472 115.917 C 127.460 116.970,127.285 117.393,127.646 117.912 C 127.789 118.116,127.810 118.050,127.732 117.642 C 127.648 117.203,127.739 116.982,128.216 116.464 C 131.141 113.285,133.451 110.248,135.091 107.426 C 135.708 106.364,135.552 106.290,134.903 107.336 M27.535 117.417 C 27.977 117.887,28.361 118.272,28.390 118.272 C 28.525 118.272,28.383 118.110,27.588 117.364 L 26.733 116.562 27.535 117.417 M127.916 118.722 C 128.094 119.714,128.401 120.704,128.471 120.512 C 128.509 120.407,128.377 119.840,128.179 119.252 C 127.981 118.663,127.862 118.425,127.916 118.722 M128.629 121.422 C 128.693 121.818,128.821 122.264,128.913 122.412 C 129.023 122.590,129.040 122.436,128.964 121.962 C 128.899 121.566,128.771 121.121,128.679 120.972 C 128.569 120.794,128.552 120.949,128.629 121.422 M129.176 123.222 C 129.354 124.215,129.661 125.205,129.731 125.012 C 129.769 124.908,129.637 124.341,129.439 123.752 C 129.241 123.164,129.122 122.925,129.176 123.222 M129.894 125.923 C 129.953 126.319,130.081 126.724,130.180 126.823 C 130.374 127.019,130.221 126.201,129.943 125.563 C 129.838 125.321,129.822 125.440,129.894 125.923 M130.436 127.723 C 130.614 128.715,130.921 129.705,130.991 129.513 C 131.029 129.408,130.898 128.841,130.699 128.253 C 130.501 127.664,130.383 127.426,130.436 127.723 M131.156 130.423 C 131.217 130.819,131.343 131.265,131.437 131.413 C 131.644 131.739,131.452 130.616,131.206 130.063 C 131.097 129.817,131.081 129.931,131.156 130.423 M131.696 132.223 C 131.874 133.216,132.181 134.206,132.251 134.013 C 132.289 133.909,132.158 133.342,131.959 132.753 C 131.761 132.165,131.643 131.926,131.696 132.223 M54.095 133.033 C 54.293 133.118,54.577 133.188,54.725 133.188 C 54.896 133.188,54.862 133.131,54.635 133.033 C 54.437 132.948,54.154 132.879,54.005 132.879 C 53.835 132.879,53.868 132.936,54.095 133.033 M100.180 133.033 C 99.953 133.131,99.920 133.188,100.090 133.188 C 100.239 133.188,100.522 133.118,100.720 133.033 C 100.947 132.936,100.980 132.879,100.810 132.879 C 100.662 132.879,100.378 132.948,100.180 133.033 M55.896 133.546 C 56.452 133.784,57.385 133.968,57.066 133.777 C 56.917 133.688,56.512 133.564,56.166 133.503 C 55.741 133.428,55.653 133.442,55.896 133.546 M105.126 133.853 C 105.668 133.985,106.141 134.063,106.178 134.026 C 106.279 133.925,104.910 133.573,104.500 133.594 C 104.302 133.605,104.584 133.721,105.126 133.853 M58.686 134.285 C 58.834 134.386,59.111 134.469,59.301 134.471 C 59.761 134.474,59.618 134.371,58.956 134.223 C 58.561 134.135,58.489 134.152,58.686 134.285 M95.500 134.293 C 95.273 134.391,95.239 134.448,95.410 134.448 C 95.558 134.448,95.842 134.379,96.040 134.293 C 96.267 134.196,96.300 134.139,96.130 134.139 C 95.981 134.139,95.698 134.208,95.500 134.293 M106.931 134.267 C 107.079 134.355,107.525 134.480,107.921 134.544 C 108.374 134.618,108.541 134.601,108.371 134.500 C 108.222 134.412,107.777 134.287,107.381 134.223 C 106.928 134.149,106.761 134.166,106.931 134.267 M132.432 134.923 C 132.491 135.320,132.608 135.765,132.691 135.914 C 132.948 136.372,132.860 135.549,132.575 134.833 L 132.324 134.203 132.432 134.923 M61.926 135.014 C 62.542 135.211,63.015 135.211,62.556 135.014 C 62.358 134.928,62.034 134.861,61.836 134.864 C 61.547 134.868,61.564 134.898,61.926 135.014 M109.811 135.001 C 110.059 135.076,110.585 135.186,110.981 135.245 L 111.701 135.352 110.981 135.107 C 110.585 134.972,110.059 134.862,109.811 134.863 L 109.361 134.864 109.811 135.001 M64.986 135.548 C 65.433 135.696,66.736 135.794,66.592 135.668 C 66.550 135.632,66.071 135.556,65.527 135.500 C 64.887 135.434,64.696 135.451,64.986 135.548 M112.061 135.527 C 112.595 135.757,113.920 135.957,113.591 135.758 C 113.443 135.668,112.957 135.544,112.511 135.483 C 111.992 135.412,111.830 135.428,112.061 135.527 M114.761 136.175 C 115.725 136.477,116.952 136.697,116.796 136.539 C 116.669 136.411,114.552 135.917,114.221 135.938 C 114.122 135.944,114.365 136.051,114.761 136.175 M70.042 136.159 C 70.083 136.196,70.968 136.268,72.007 136.321 C 73.282 136.386,73.604 136.369,72.997 136.271 C 72.079 136.122,69.906 136.040,70.042 136.159 M82.853 136.223 C 83.126 136.264,83.571 136.264,83.843 136.223 C 84.116 136.181,83.893 136.148,83.348 136.148 C 82.804 136.148,82.581 136.181,82.853 136.223 M79.973 136.403 C 80.245 136.444,80.691 136.444,80.963 136.403 C 81.235 136.361,81.013 136.328,80.468 136.328 C 79.923 136.328,79.701 136.361,79.973 136.403 M117.227 136.723 C 117.371 136.874,119.586 137.360,119.683 137.262 C 119.719 137.227,119.436 137.118,119.055 137.020 C 117.828 136.707,117.098 136.588,117.227 136.723 M133.136 137.444 C 133.197 137.840,133.323 138.285,133.418 138.434 C 133.624 138.760,133.432 137.636,133.187 137.084 C 133.077 136.838,133.062 136.952,133.136 137.444 M120.342 137.507 C 120.875 137.737,122.201 137.937,121.872 137.738 C 121.724 137.648,121.238 137.524,120.792 137.463 C 120.273 137.392,120.111 137.408,120.342 137.507 M123.042 138.147 C 123.438 138.276,124.086 138.429,124.482 138.488 L 125.203 138.595 124.482 138.361 C 124.086 138.232,123.438 138.079,123.042 138.020 L 122.322 137.913 123.042 138.147 M125.563 138.780 C 125.761 138.858,126.247 138.970,126.643 139.028 L 127.363 139.132 126.643 138.887 C 126.247 138.752,125.761 138.640,125.563 138.639 L 125.203 138.637 125.563 138.780 M133.678 139.334 C 133.734 139.680,133.823 140.114,133.875 140.297 C 133.957 140.588,133.892 140.617,133.366 140.523 C 132.916 140.442,132.854 140.457,133.123 140.582 C 134.107 141.038,134.348 140.613,133.831 139.334 L 133.577 138.704 133.678 139.334 M127.641 139.216 C 127.774 139.357,130.029 139.878,130.118 139.789 C 130.157 139.750,129.877 139.638,129.496 139.541 C 128.347 139.247,127.537 139.106,127.641 139.216 M130.783 140.028 C 131.316 140.258,132.642 140.457,132.313 140.258 C 132.165 140.168,131.679 140.045,131.233 139.984 C 130.714 139.912,130.552 139.928,130.783 140.028 " stroke="none" fill="#30517a" fill-rule="evenodd"></path></g></svg>